<svg width="239" height="240" viewBox="0 0 239 240" fill="none" xmlns="http://www.w3.org/2000/svg">
<path d="M26.5333 123V106.467C26.5778 106.467 26.8444 106.489 27.3333 106.533C27.8222 106.578 28.1556 106.6 28.3333 106.6C28.5111 106.6 28.8444 106.622 29.3333 106.667C29.8667 106.667 30.2667 106.689 30.5333 106.733C30.8444 106.733 31.2444 106.756 31.7333 106.8C32.2667 106.8 32.7111 106.822 33.0667 106.867C33.4667 106.867 33.8889 106.867 34.3333 106.867C34.8222 106.867 35.2889 106.867 35.7333 106.867C39.2 106.867 42.4889 106.089 45.6 104.533C48.7111 102.978 51.4889 100.756 53.9333 97.8667C56.3778 94.9778 58.3111 91.2889 59.7333 86.8C61.2 82.2667 61.9333 77.2444 61.9333 71.7333C61.9333 62.5778 59.7111 55.7111 55.2667 51.1333C50.8222 46.5556 44.2889 44.2667 35.6667 44.2667C32.6 44.2667 28.6889 44.3778 23.9333 44.6C19.1778 44.7778 15.6222 44.8667 13.2667 44.8667H4.46667V123H26.5333ZM40.0667 68.8V78.6667C40.0667 83.1111 39.0889 86.5111 37.1333 88.8667C35.2222 91.2222 32.5111 92.4 29 92.4H26.5333V57.7333H29.7333C33.0667 57.7333 35.6222 58.7556 37.4 60.8C39.1778 62.8444 40.0667 65.5111 40.0667 68.8ZM67.1667 123H89.9V44.8667H67.1667V123ZM120.198 123V98.4L116.265 72.8L126.065 92.1333L141.931 123H162.265V44.8667H140.998V65.8L144.265 95.4667L132.531 70.2L120.265 44.8667H95.7313L98.9979 51.1333V123H120.198ZM209.064 123H233.597C232.664 121.622 231.197 118.756 229.197 114.4C227.197 110 225.264 105.622 223.397 101.267C221.53 96.9111 219.53 92.7556 217.397 88.8C215.264 84.8444 213.552 82.4222 212.264 81.5333L232.13 44.8667H209.93L193.33 82.2667V44.8667H171.264V123H193.33V86.6C195.108 89.5778 197.152 93.9556 199.464 99.7333C201.819 105.467 203.864 110.622 205.597 115.2C207.375 119.733 208.53 122.333 209.064 123Z" fill="#F4608C"/>
<path d="M18.5733 186V165.607L31.1733 166.54V154.967H18.5733V142.273L33.9267 143.207V131.307H3.12667V186H18.5733ZM53.0698 167.8C53.3187 167.8 53.7076 167.816 54.2365 167.847C54.7965 167.878 55.3254 167.909 55.8232 167.94C56.321 167.971 56.8965 168.002 57.5498 168.033C58.2343 168.033 58.8721 168.033 59.4632 168.033C59.5565 168.033 59.6343 168.033 59.6965 168.033C60.2876 169.931 60.7387 172.296 61.0498 175.127C61.3921 177.927 61.6565 180.338 61.8432 182.36C62.0298 184.351 62.2943 185.564 62.6365 186H79.8565C79.2032 185.16 78.5965 183.9 78.0365 182.22C77.5076 180.54 77.0254 178.844 76.5898 177.133C76.1854 175.391 75.7032 173.68 75.1432 172C74.5832 170.289 73.7898 168.811 72.7632 167.567C71.7676 166.322 70.5698 165.529 69.1698 165.187C71.7521 163.538 73.821 161.313 75.3765 158.513C76.9632 155.713 77.7565 152.509 77.7565 148.9C77.7565 142.802 76.0921 138.276 72.7632 135.32C69.4654 132.364 64.4565 130.887 57.7365 130.887C55.8076 130.887 53.3654 130.964 50.4098 131.12C47.4543 131.244 45.2298 131.307 43.7365 131.307H37.5765V186H53.0698V167.8ZM53.0698 159.12V139.893H53.9565C56.601 139.893 58.6232 140.438 60.0232 141.527C61.4543 142.584 62.1698 144.467 62.1698 147.173V150.86C62.1698 152.104 62.0765 153.193 61.8898 154.127C61.7032 155.06 61.4232 155.822 61.0498 156.413C60.6765 157.004 60.2721 157.487 59.8365 157.86C59.4321 158.233 58.9032 158.513 58.2498 158.7C57.6276 158.856 57.0521 158.964 56.5232 159.027C55.9943 159.089 55.341 159.12 54.5632 159.12H53.0698ZM82.9737 186H98.887V131.307H82.9737V186ZM123.689 178.347H120.702V139.38H124.202C126.38 139.38 128.06 140.718 129.242 143.393C130.424 146.069 131.016 149.864 131.016 154.78V159.493C131.016 166.213 130.378 171.036 129.102 173.96C127.858 176.884 126.053 178.347 123.689 178.347ZM125.136 186.327C128.558 186.327 131.607 185.736 134.282 184.553C136.958 183.371 139.104 181.831 140.722 179.933C142.34 178.036 143.678 175.78 144.736 173.167C145.793 170.522 146.509 167.893 146.882 165.28C147.287 162.667 147.489 159.913 147.489 157.02C147.489 148.496 145.762 142.009 142.309 137.56C138.887 133.111 133.209 130.887 125.276 130.887C123.876 130.887 121.947 130.949 119.489 131.073C117.031 131.198 114.76 131.276 112.676 131.307H105.256V186H112.676C115.164 186 117.576 186.047 119.909 186.14C122.273 186.264 124.016 186.327 125.136 186.327ZM178.71 186H195.837L180.25 131.307H160.977L162.097 135.087L147.863 186H161.583L163.357 177.273H176.61L178.71 186ZM169.377 147.36L174.323 167.753H165.27L169.377 147.36ZM207.711 186H224.464V168.64L238.137 131.307H224.231L220.591 145.4L217.931 156.927L214.711 145.4L209.904 131.307H192.217L207.711 168.92V186Z" fill="#F4608C"/>
</svg>
