<svg width="665" height="269" viewBox="0 0 665 269" fill="none" xmlns="http://www.w3.org/2000/svg">
<path d="M348.621 147.023C343.738 147.023 339.871 145.871 337.02 143.566C334.168 141.301 332.742 138.762 332.742 135.949C332.742 133.059 333.758 131.301 335.789 130.676C336.336 129.895 336.336 128.977 335.789 127.922C333.68 127.922 331.941 128.664 330.574 130.148C329.246 131.633 328.582 133.723 328.582 136.418C328.582 139.777 330.477 143.02 334.266 146.145C338.055 149.27 342.996 150.832 349.09 150.832C357.098 150.832 364.109 147.883 370.125 141.984C376.18 136.125 379.207 128.879 379.207 120.246C379.207 115.051 378.367 110.676 376.688 107.121C375.008 103.566 372.605 100.832 369.48 98.918C366.355 96.9648 362.918 95.5977 359.168 94.8164C355.418 93.9961 351.062 93.5859 346.102 93.5859L348.621 78.8203H377.859L382.547 60.832C381.844 60.2852 380.887 60.0117 379.676 60.0117C378.504 62.2773 377.195 64.0156 375.75 65.2266C374.305 66.4375 371.531 67.1406 367.43 67.3359H345.34C344.012 81.3203 341.863 92.9219 338.895 102.141C339.754 104.055 340.984 105.168 342.586 105.48C346.531 105.48 349.891 105.676 352.664 106.066C355.477 106.457 358.25 107.219 360.984 108.352C363.758 109.484 365.867 111.262 367.312 113.684C368.758 116.066 369.48 119.055 369.48 122.648C369.48 131.125 367.41 137.297 363.27 141.164C359.168 145.07 354.285 147.023 348.621 147.023ZM378.094 57.6094C381.062 57.6094 383.426 58.3711 385.184 59.8945L379.676 81.2227H355.652L354.012 91.1836C364.715 91.3398 372.957 93.5664 378.738 97.8633C384.559 102.16 387.469 109.621 387.469 120.246C387.469 129.348 383.387 137.102 375.223 143.508C367.059 149.914 358.309 153.117 348.973 153.117C344.871 153.117 341.258 152.512 338.133 151.301C335.047 150.129 332.664 148.605 330.984 146.73C329.305 144.895 328.055 143.059 327.234 141.223C326.453 139.387 326.062 137.668 326.062 136.066C326.062 133.02 327.02 130.5 328.934 128.508C330.848 126.516 333.211 125.52 336.023 125.52C341.453 125.52 344.168 128.527 344.168 134.543C344.168 138.215 342.371 140.852 338.777 142.453C339.793 143.234 341.57 143.82 344.109 144.211C346.688 144.641 348.738 144.738 350.262 144.504C354.988 144.074 358.973 142.121 362.215 138.645C365.457 135.168 367.078 129.836 367.078 122.648C367.078 119.523 366.395 116.945 365.027 114.914C363.66 112.883 361.688 111.379 359.109 110.402C356.57 109.426 353.992 108.762 351.375 108.41C348.797 108.059 345.711 107.883 342.117 107.883C340.75 107.57 339.656 107.043 338.836 106.301C338.055 105.52 337.234 104.211 336.375 102.375C339.422 92.8438 341.688 80.3633 343.172 64.9336H368.426C370.535 64.8555 372.215 64.3867 373.465 63.5273C374.715 62.6289 375.613 61.8086 376.16 61.0664C376.746 60.2852 377.391 59.1328 378.094 57.6094ZM395.672 148.195L397.137 150.48C404.754 147.824 409.93 145.793 412.664 144.387C415.398 143.02 418.23 141.477 421.16 139.758C424.129 138.078 426.805 136.301 429.188 134.426C432.234 132.199 435.145 129.66 437.918 126.809C440.691 123.957 443.133 120.832 445.242 117.434C447.391 113.996 449.09 110.324 450.34 106.418C451.59 102.473 452.215 98.293 452.215 93.8789C452.215 90.0508 451.805 86.6914 450.984 83.8008C450.164 80.9102 449.051 78.4297 447.645 76.3594C446.277 74.25 444.676 72.4922 442.84 71.0859C441.043 69.6797 439.168 68.5664 437.215 67.7461C435.262 66.9258 433.309 66.3594 431.355 66.0469C429.402 65.6953 427.586 65.5195 425.906 65.5195C422.43 65.5195 419.051 66.1641 415.77 67.4531C412.527 68.7031 409.637 70.5391 407.098 72.9609C404.598 75.3438 402.586 78.2539 401.062 81.6914C399.539 85.1289 398.777 89.0156 398.777 93.3516C398.777 98 399.578 101.965 401.18 105.246C402.82 108.527 405.125 111.203 408.094 113.273C411.062 115.344 414.637 116.867 418.816 117.844C422.996 118.82 427.645 119.309 432.762 119.309C423.855 130.91 411.492 140.539 395.672 148.195ZM410.32 93.3516C410.32 88.625 410.828 84.5625 411.844 81.1641C412.898 77.7656 414.285 75.2656 416.004 73.6641C417.723 72.0625 419.383 70.9492 420.984 70.3242C422.586 69.6992 424.266 69.3867 426.023 69.3867C430.828 69.3867 434.578 71.3203 437.273 75.1875C440.008 79.0547 441.375 84.5039 441.375 91.5352C441.375 102.824 439.266 110.676 435.047 115.09C425.828 115.012 419.422 113.254 415.828 109.816C412.234 106.379 410.398 100.891 410.32 93.3516ZM400.242 153.234H396.023L392.098 147.258C407.527 139.797 419.441 131.223 427.84 121.535C406.863 120.285 396.375 110.891 396.375 93.3516C396.375 84.0156 399.344 76.6523 405.281 71.2617C411.258 65.832 418.133 63.1172 425.906 63.1172C430.32 63.1172 434.383 63.5664 438.094 64.4648C441.805 65.3242 445.438 66.8477 448.992 69.0352C452.547 71.1836 455.34 74.3672 457.371 78.5859C459.441 82.7656 460.477 87.8438 460.477 93.8203C460.477 99.6797 459.363 105.285 457.137 110.637C454.949 115.988 452.078 120.598 448.523 124.465C444.969 128.371 441.043 131.984 436.746 135.305C432.488 138.625 428.211 141.418 423.914 143.684C419.617 145.949 411.727 149.133 400.242 153.234ZM418.582 93.3516C418.66 99.4453 419.812 103.996 422.039 107.004C424.305 109.973 428.309 111.789 434.051 112.453C437.332 108.039 438.973 101.066 438.973 91.5352C438.973 85.9492 438.016 81.457 436.102 78.0586C434.188 74.6602 431.551 72.6484 428.191 72.0234C421.785 73.625 418.582 80.7344 418.582 93.3516ZM486.668 131.379L526.395 70.3242C526.316 69.6992 526.023 69.0547 525.516 68.3906C525.047 67.6875 524.5 67.3359 523.875 67.3359H483.035L480.164 65.5195C479.266 65.5195 478.504 66.0078 477.879 66.9844C477.84 68.2344 477.723 69.7578 477.527 71.5547C477.332 73.3516 477.059 75.207 476.707 77.1211C476.395 79.0352 476.023 80.8711 475.594 82.6289C475.203 84.3867 474.773 85.8516 474.305 87.0234C475.164 87.9609 476.277 88.4297 477.645 88.4297C477.645 88.3516 477.84 87.9609 478.23 87.2578C478.66 86.5156 479.344 85.4219 480.281 83.9766C481.102 82.7656 482 81.8086 482.977 81.1055C483.953 80.4023 484.93 79.8945 485.906 79.582C486.883 79.2305 487.781 79.0156 488.602 78.9375C489.422 78.8594 490.105 78.8203 490.652 78.8203H513.562L478.758 131.262L475.066 136.594C474.832 136.945 474.598 137.375 474.363 137.883C474.129 138.43 473.895 138.996 473.66 139.582C473.465 140.168 473.289 140.754 473.133 141.34C473.016 141.965 472.957 142.531 472.957 143.039C472.957 145.422 473.719 147.336 475.242 148.781C476.805 150.227 479.168 150.949 482.332 150.949C482.605 150.793 482.84 150.52 483.035 150.129C483.23 149.777 483.328 149.387 483.328 148.957C483.328 148.527 483.23 148.195 483.035 147.961C481.043 147.883 480.047 146.984 480.047 145.266C480.203 142.609 482.41 137.98 486.668 131.379ZM483.328 90.832C481.492 90.832 479.988 90.8125 478.816 90.7734C477.684 90.7344 476.688 90.6172 475.828 90.4219C475.008 90.1875 474.266 89.8555 473.602 89.4258C472.977 88.957 472.293 88.3125 471.551 87.4922C472.02 86.2031 472.488 84.6211 472.957 82.7461C473.426 80.832 473.836 78.8789 474.188 76.8867C474.539 74.8555 474.832 72.8828 475.066 70.9688C475.301 69.0547 475.438 67.4336 475.477 66.1055C476.805 64.1133 478.621 63.1172 480.926 63.1172L483.914 64.9336H525.516C526.375 64.9336 527.234 65.1484 528.094 65.5781C528.992 65.9688 529.793 66.4766 530.496 67.1016C531.199 67.6875 531.785 68.332 532.254 69.0352C532.762 69.6992 533.055 70.3242 533.133 70.9102L489.188 137.648C490.867 139.445 491.707 141.555 491.707 143.977C491.707 145.266 491.453 146.457 490.945 147.551C490.477 148.684 489.773 149.66 488.836 150.48C487.938 151.34 486.824 152.004 485.496 152.473C484.207 152.98 482.723 153.234 481.043 153.234C477.723 153.234 475.145 152.316 473.309 150.48C471.473 148.684 470.555 146.203 470.555 143.039C470.555 142.453 470.613 141.828 470.73 141.164C470.887 140.539 471.043 139.914 471.199 139.289C471.395 138.703 471.59 138.156 471.785 137.648C472.02 137.141 472.234 136.73 472.43 136.418C472.586 136.105 475.73 131.34 481.863 122.121C487.996 112.902 497.078 99.2305 509.109 81.1055H494.344C493.055 81.1055 491.902 81.3008 490.887 81.6914C489.91 82.082 488.992 82.6875 488.133 83.5078C487.312 84.2891 486.512 85.2852 485.73 86.4961C484.988 87.707 484.188 89.1523 483.328 90.832Z" fill="white"/>
<path d="M598.844 131.961C598.844 127.469 600.465 123.66 603.707 120.535C606.949 117.371 610.855 115.789 615.426 115.789C619.879 115.789 623.688 117.371 626.852 120.535C630.016 123.66 631.598 127.469 631.598 131.961C631.598 136.297 629.996 140.047 626.793 143.211C623.59 146.336 619.801 147.898 615.426 147.898C610.934 147.898 607.047 146.336 603.766 143.211C600.484 140.047 598.844 136.297 598.844 131.961ZM593.688 131.844C593.688 137.938 595.797 143.113 600.016 147.371C604.273 151.59 609.449 153.699 615.543 153.699C621.363 153.699 626.344 151.59 630.484 147.371C634.664 143.113 636.754 137.938 636.754 131.844C636.754 125.75 634.664 120.555 630.484 116.258C626.344 111.922 621.363 109.754 615.543 109.754C609.449 109.754 604.273 111.902 600.016 116.199C595.797 120.457 593.688 125.672 593.688 131.844ZM543.18 86.2578C543.18 81.7656 544.801 77.9375 548.043 74.7734C551.285 71.6094 555.172 70.0273 559.703 70.0273C564.195 70.0273 568.023 71.6094 571.188 74.7734C574.352 77.9375 575.934 81.7656 575.934 86.2578C575.934 90.5547 574.332 94.2852 571.129 97.4492C567.926 100.613 564.117 102.195 559.703 102.195C555.25 102.195 551.383 100.613 548.102 97.4492C544.82 94.2852 543.18 90.5547 543.18 86.2578ZM538.023 86.1406C538.023 92.1953 540.133 97.3516 544.352 101.609C548.609 105.828 553.766 107.938 559.82 107.938C565.68 107.938 570.68 105.828 574.82 101.609C579 97.3516 581.09 92.1953 581.09 86.1406C581.09 80.0469 579 74.8516 574.82 70.5547C570.68 66.2188 565.68 64.0508 559.82 64.0508C553.766 64.0508 548.609 66.1992 544.352 70.4961C540.133 74.7539 538.023 79.9688 538.023 86.1406ZM606.871 60.6523L562.457 155.574L567.613 157.742L612.027 62.5859L606.871 60.6523ZM535.621 86.1406C535.621 79.3438 537.965 73.5625 542.652 68.7969C547.379 64.0312 553.102 61.6484 559.82 61.6484C564.781 61.6484 569.332 62.4492 573.473 64.0508C577.652 65.6523 581.207 68.3672 584.137 72.1953C587.066 76.0234 588.531 80.6719 588.531 86.1406C588.531 93.0156 585.914 98.7773 580.68 103.426C575.445 108.035 568.492 110.34 559.82 110.34C553.102 110.34 547.379 107.996 542.652 103.309C537.965 98.582 535.621 92.8594 535.621 86.1406ZM591.285 131.844C591.285 125.047 593.648 119.266 598.375 114.5C603.102 109.734 608.824 107.352 615.543 107.352C624.176 107.352 631.109 109.695 636.344 114.383C641.578 119.07 644.195 124.891 644.195 131.844C644.195 138.719 641.578 144.48 636.344 149.129C631.109 153.777 624.176 156.102 615.543 156.102C608.824 156.102 603.102 153.738 598.375 149.012C593.648 144.285 591.285 138.562 591.285 131.844ZM559.352 156.805L605.699 57.6641H609.859L619.469 61.1797L573.062 160.906H568.844L559.352 156.805ZM606.285 131.961C606.285 135.242 607.359 138.172 609.508 140.75C611.695 143.289 614.371 144.832 617.535 145.379C620.816 144.832 623.57 143.289 625.797 140.75C628.062 138.172 629.195 135.242 629.195 131.961C629.195 128.523 628.062 125.535 625.797 122.996C623.57 120.418 620.816 118.895 617.535 118.426C614.371 118.895 611.695 120.418 609.508 122.996C607.359 125.535 606.285 128.523 606.285 131.961ZM550.621 86.2578C550.621 89.5391 551.695 92.4688 553.844 95.0469C555.992 97.5859 558.668 99.1289 561.871 99.6758C565.152 99.1289 567.906 97.5859 570.133 95.0469C572.398 92.4688 573.531 89.5391 573.531 86.2578C573.531 82.8984 572.418 79.9492 570.191 77.4102C568.004 74.832 565.23 73.25 561.871 72.6641C558.668 73.1719 555.992 74.7148 553.844 77.293C551.695 79.832 550.621 82.8203 550.621 86.2578Z" fill="white"/>
<path d="M448.598 141.336C447.387 142.664 446.781 144.344 446.781 146.375C446.781 147.352 446.938 148.289 447.25 149.188C447.602 150.047 448.07 150.809 448.656 151.473C449.242 152.098 449.906 152.605 450.648 152.996C451.43 153.387 452.27 153.582 453.168 153.582C454.027 153.582 454.828 153.387 455.57 152.996C456.352 152.605 457.035 152.098 457.621 151.473C458.207 150.809 458.656 150.047 458.969 149.188C459.32 148.289 459.496 147.352 459.496 146.375C459.496 145.398 459.32 144.48 458.969 143.621C458.656 142.762 458.207 142 457.621 141.336C457.035 140.672 456.352 140.145 455.57 139.754C454.828 139.363 454.027 139.168 453.168 139.168C451.41 139.168 449.887 139.891 448.598 141.336ZM453.988 136.766C462.777 136.766 467.172 139.969 467.172 146.375C467.172 152.781 462.777 155.984 453.988 155.984C452.699 155.984 451.469 155.73 450.297 155.223C449.164 154.715 448.148 154.031 447.25 153.172C446.391 152.312 445.688 151.297 445.141 150.125C444.633 148.953 444.379 147.703 444.379 146.375C444.379 145.047 444.633 143.797 445.141 142.625C445.648 141.453 446.332 140.438 447.191 139.578C448.09 138.719 449.125 138.035 450.297 137.527C451.469 137.02 452.699 136.766 453.988 136.766Z" fill="white"/>
<path d="M647.918 69.502C647.918 69.7051 647.935 69.8913 647.969 70.0605L643.602 71.1523C641.621 71.694 640.631 72.7012 640.631 74.1738C640.631 75.3249 641.393 75.9004 642.916 75.9004C643.221 75.9004 643.585 75.7734 644.008 75.5195C644.448 75.2656 644.922 74.8678 645.43 74.3262L648.604 71.0508C648.908 71.3555 649.238 71.5332 649.594 71.584L648.273 75.9512C648.104 76.5267 648.02 77.0768 648.02 77.6016C648.02 79.3281 648.73 80.1914 650.152 80.1914C650.812 80.1914 651.32 79.9375 651.676 79.4297C652.048 78.9219 652.234 78.2617 652.234 77.4492C652.234 76.9076 652.167 76.4082 652.031 75.9512L650.686 71.5078C651.058 71.4062 651.363 71.237 651.6 71L654.9 74.3262C655.831 75.291 656.796 75.7734 657.795 75.7734C659.048 75.7734 659.674 75.1895 659.674 74.0215C659.674 72.6165 658.684 71.6602 656.703 71.1523L652.184 70.0098C652.217 69.8743 652.234 69.7051 652.234 69.502C652.234 69.3665 652.201 69.1719 652.133 68.918L656.703 67.8262C657.617 67.6061 658.337 67.2337 658.861 66.709C659.403 66.1842 659.674 65.5495 659.674 64.8047C659.674 64.3984 659.513 64.0345 659.191 63.7129C658.887 63.3743 658.421 63.2051 657.795 63.2051C656.813 63.2389 655.848 63.7383 654.9 64.7031L651.676 68.0293C651.49 67.8262 651.16 67.623 650.686 67.4199L652.031 63.002C652.099 62.7311 652.15 62.4688 652.184 62.2148C652.217 61.9609 652.234 61.6986 652.234 61.4277C652.234 60.6152 652.048 59.9805 651.676 59.5234C651.32 59.0664 650.812 58.8379 650.152 58.8379C649.492 58.8379 648.967 59.0664 648.578 59.5234C648.206 59.9635 648.02 60.5645 648.02 61.3262C648.02 61.5632 648.036 61.8255 648.07 62.1133C648.104 62.3841 648.172 62.6803 648.273 63.002L649.594 67.3691C649.171 67.4707 648.824 67.6569 648.553 67.9277L645.1 64.3477C644.863 64.1107 644.668 63.916 644.516 63.7637C644.363 63.6113 644.194 63.4928 644.008 63.4082C643.822 63.3066 643.602 63.2389 643.348 63.2051C643.094 63.1712 642.764 63.1543 642.357 63.1543C642.12 63.1543 641.9 63.2051 641.697 63.3066C641.494 63.4082 641.308 63.5436 641.139 63.7129C640.986 63.8652 640.859 64.043 640.758 64.2461C640.673 64.4323 640.631 64.6185 640.631 64.8047C640.631 66.362 641.621 67.3691 643.602 67.8262L647.969 68.918C647.935 69.0534 647.918 69.248 647.918 69.502ZM639.59 74.1738C639.59 72.1257 640.842 70.7884 643.348 70.1621L646.039 69.502L643.348 68.8164H643.398C640.859 68.2578 639.59 66.9206 639.59 64.8047C639.59 64.2122 639.861 63.6198 640.402 63.0273C640.944 62.418 641.596 62.1133 642.357 62.1133C644.05 62.1133 645.701 62.528 647.309 63.3574C647.089 62.6296 646.979 61.9525 646.979 61.3262C646.979 60.2598 647.258 59.4049 647.816 58.7617C648.375 58.1185 649.154 57.7969 650.152 57.7969C650.948 57.7969 651.591 57.8307 652.082 57.8984C652.573 57.9661 653.072 58.1185 653.58 58.3555C654.105 58.5755 654.486 58.9395 654.723 59.4473C654.977 59.9382 655.104 60.5983 655.104 61.4277C655.104 62.0879 654.993 62.7311 654.773 63.3574C655.654 62.5618 656.661 62.1641 657.795 62.1641H659.623C660.554 62.1641 661.273 62.4434 661.781 63.002C662.289 63.5436 662.543 64.1445 662.543 64.8047C662.543 65.668 662.171 66.472 661.426 67.2168C660.681 67.9447 659.801 68.4779 658.785 68.8164L656.145 69.5527L658.785 70.1621C661.29 70.8561 662.543 72.1426 662.543 74.0215C662.543 74.8509 662.298 75.528 661.807 76.0527C661.316 76.5605 660.588 76.8145 659.623 76.8145C657.304 76.8145 655.704 76.4505 654.824 75.7227C655.01 76.2812 655.104 76.8568 655.104 77.4492C655.104 79.9714 653.453 81.2324 650.152 81.2324C648.036 81.2324 646.979 80.0221 646.979 77.6016C646.979 76.9076 647.063 76.2812 647.232 75.7227C646.301 76.5182 645.472 76.916 644.744 76.916H642.916C641.985 76.916 641.198 76.696 640.555 76.2559C639.911 75.7988 639.59 75.1048 639.59 74.1738Z" fill="white"/>
<path d="M347.328 210.784H344.512V174.044H347.812C349.865 174.044 351.449 175.305 352.564 177.828C353.679 180.351 354.236 183.929 354.236 188.564V193.008C354.236 199.344 353.635 203.891 352.432 206.648C351.259 209.405 349.557 210.784 347.328 210.784ZM348.692 218.308C351.919 218.308 354.793 217.751 357.316 216.636C359.839 215.521 361.863 214.069 363.388 212.28C364.913 210.491 366.175 208.364 367.172 205.9C368.169 203.407 368.844 200.928 369.196 198.464C369.577 196 369.768 193.404 369.768 190.676C369.768 182.639 368.14 176.523 364.884 172.328C361.657 168.133 356.304 166.036 348.824 166.036C347.504 166.036 345.685 166.095 343.368 166.212C341.051 166.329 338.909 166.403 336.944 166.432H329.948V218H336.944C339.291 218 341.564 218.044 343.764 218.132C345.993 218.249 347.636 218.308 348.692 218.308ZM374.037 218H389.041V166.432H374.037V218ZM410.402 218.924C415.828 218.924 419.964 217.413 422.81 214.392C425.684 211.341 427.122 206.912 427.122 201.104C427.122 197.525 426.11 194.489 424.086 191.996C422.091 189.503 418.952 187.347 414.67 185.528C414.259 185.264 413.643 184.927 412.822 184.516C412.03 184.076 411.399 183.709 410.93 183.416C410.49 183.123 410.006 182.771 409.478 182.36C408.95 181.949 408.568 181.495 408.334 180.996C408.099 180.497 407.982 179.94 407.982 179.324C407.982 176.977 409.859 175.804 413.614 175.804C415.168 175.804 416.796 176.141 418.498 176.816C420.228 177.461 421.666 178.459 422.81 179.808L425.01 171.316C424.922 171.169 424.775 170.979 424.57 170.744C424.364 170.48 423.866 170.04 423.074 169.424C422.311 168.779 421.46 168.221 420.522 167.752C419.583 167.283 418.278 166.857 416.606 166.476C414.963 166.065 413.203 165.86 411.326 165.86C399.504 165.86 393.594 171.096 393.594 181.568C393.594 183.504 393.887 185.323 394.474 187.024C395.06 188.696 395.735 190.075 396.498 191.16C397.26 192.216 398.243 193.243 399.446 194.24C400.678 195.208 401.66 195.912 402.394 196.352C403.127 196.763 404.022 197.232 405.078 197.76C407.982 199.168 410.02 200.371 411.194 201.368C412.396 202.365 412.998 203.568 412.998 204.976C412.998 206.296 412.47 207.205 411.414 207.704C410.387 208.203 408.7 208.452 406.354 208.452C404.007 208.452 401.822 207.865 399.798 206.692C397.774 205.489 396.16 204.081 394.958 202.468L393.858 213.16C394.415 213.747 395.104 214.333 395.926 214.92C396.776 215.507 397.862 216.123 399.182 216.768C400.502 217.413 402.13 217.927 404.066 218.308C406.031 218.719 408.143 218.924 410.402 218.924ZM464.344 214.348L462.364 207.396C461.308 208.159 459.959 208.731 458.316 209.112C456.673 209.464 455.104 209.64 453.608 209.64C452.933 209.64 452.303 209.552 451.716 209.376C451.129 209.171 450.469 208.716 449.736 208.012C449.003 207.308 448.372 206.384 447.844 205.24C447.316 204.067 446.861 202.395 446.48 200.224C446.128 198.053 445.952 195.516 445.952 192.612C445.952 187.743 446.231 184.017 446.788 181.436C447.345 178.825 448.152 177.08 449.208 176.2C450.264 175.291 451.775 174.836 453.74 174.836C454.092 174.836 454.532 174.909 455.06 175.056L457.348 180.292H464.036L464.696 170.172C464.608 170.055 464.461 169.893 464.256 169.688C464.08 169.483 463.611 169.116 462.848 168.588C462.115 168.06 461.279 167.591 460.34 167.18C459.431 166.769 458.169 166.403 456.556 166.08C454.972 165.757 453.271 165.596 451.452 165.596C447.492 165.596 444.133 166.197 441.376 167.4C438.619 168.603 436.448 170.407 434.864 172.812C433.309 175.188 432.195 177.96 431.52 181.128C430.845 184.267 430.508 188.007 430.508 192.348C430.508 196.425 430.845 200.019 431.52 203.128C432.195 206.208 433.295 208.98 434.82 211.444C436.375 213.879 438.516 215.741 441.244 217.032C443.972 218.293 447.257 218.924 451.1 218.924C452.919 218.924 454.62 218.763 456.204 218.44C457.788 218.147 459.049 217.78 459.988 217.34C460.956 216.871 461.777 216.416 462.452 215.976C463.156 215.507 463.655 215.125 463.948 214.832L464.344 214.348ZM483.18 198.068V187.024C483.18 181.715 483.547 178.063 484.28 176.068C485.043 174.044 486.363 173.032 488.24 173.032C490.118 173.032 491.467 174.059 492.288 176.112C493.11 178.165 493.52 181.289 493.52 185.484V196.088C493.52 200.4 493.33 203.641 492.948 205.812C492.596 207.953 492.068 209.376 491.364 210.08C490.66 210.755 489.619 211.092 488.24 211.092C486.363 211.092 485.043 210.139 484.28 208.232C483.547 206.325 483.18 202.937 483.18 198.068ZM487.316 218.924C490.895 218.924 493.99 218.528 496.6 217.736C499.24 216.915 501.396 215.8 503.068 214.392C504.74 212.955 506.075 211.107 507.072 208.848C508.07 206.56 508.759 204.111 509.14 201.5C509.522 198.889 509.712 195.824 509.712 192.304C509.712 189.928 509.639 187.801 509.492 185.924C509.346 184.047 509.082 182.155 508.7 180.248C508.319 178.341 507.806 176.684 507.16 175.276C506.544 173.839 505.708 172.489 504.652 171.228C503.626 169.967 502.408 168.94 501 168.148C499.592 167.356 497.906 166.74 495.94 166.3C493.975 165.831 491.76 165.596 489.296 165.596C485.718 165.596 482.608 166.007 479.968 166.828C477.358 167.649 475.216 168.779 473.544 170.216C471.902 171.653 470.582 173.531 469.584 175.848C468.587 178.136 467.898 180.585 467.516 183.196C467.164 185.807 466.988 188.872 466.988 192.392C466.988 194.768 467.062 196.909 467.208 198.816C467.355 200.693 467.619 202.585 468 204.492C468.382 206.369 468.88 208.012 469.496 209.42C470.142 210.828 470.978 212.148 472.004 213.38C473.06 214.612 474.292 215.624 475.7 216.416C477.108 217.208 478.78 217.824 480.716 218.264C482.682 218.704 484.882 218.924 487.316 218.924ZM534.216 218.924C537.296 218.924 539.995 218.631 542.312 218.044C544.659 217.457 546.551 216.68 547.988 215.712C549.455 214.715 550.628 213.483 551.508 212.016C552.417 210.52 553.033 208.98 553.356 207.396C553.708 205.812 553.884 204.037 553.884 202.072V166.432H539.98V199.96C539.98 201.837 539.833 203.436 539.54 204.756C539.276 206.047 538.88 207.044 538.352 207.748C537.824 208.423 537.252 208.907 536.636 209.2C536.02 209.464 535.301 209.596 534.48 209.596C532.984 209.596 531.84 208.907 531.048 207.528C530.285 206.12 529.904 203.553 529.904 199.828V166.432H514.24V201.808C514.24 203.803 514.431 205.621 514.812 207.264C515.193 208.907 515.853 210.476 516.792 211.972C517.76 213.439 518.977 214.671 520.444 215.668C521.94 216.665 523.847 217.457 526.164 218.044C528.511 218.631 531.195 218.924 534.216 218.924ZM573.78 218V201.764L571.184 184.868L577.652 197.628L588.124 218H601.544V166.432H587.508V180.248L589.664 199.828L581.92 183.152L573.824 166.432H557.632L559.788 170.568V218H573.78ZM615.667 218H630.539V178.092H640.835V166.432H605.371V178.092H615.667V218Z" fill="white"/>
<rect x="279" y="44" width="20" height="185" fill="url(#paint0_linear_401_15)"/>
<path d="M26.5333 152V135.467C26.5778 135.467 26.8444 135.489 27.3333 135.533C27.8222 135.578 28.1556 135.6 28.3333 135.6C28.5111 135.6 28.8444 135.622 29.3333 135.667C29.8667 135.667 30.2667 135.689 30.5333 135.733C30.8444 135.733 31.2444 135.756 31.7333 135.8C32.2667 135.8 32.7111 135.822 33.0667 135.867C33.4667 135.867 33.8889 135.867 34.3333 135.867C34.8222 135.867 35.2889 135.867 35.7333 135.867C39.2 135.867 42.4889 135.089 45.6 133.533C48.7111 131.978 51.4889 129.756 53.9333 126.867C56.3778 123.978 58.3111 120.289 59.7333 115.8C61.2 111.267 61.9333 106.244 61.9333 100.733C61.9333 91.5778 59.7111 84.7111 55.2667 80.1333C50.8222 75.5556 44.2889 73.2667 35.6667 73.2667C32.6 73.2667 28.6889 73.3778 23.9333 73.6C19.1778 73.7778 15.6222 73.8667 13.2667 73.8667H4.46667V152H26.5333ZM40.0667 97.8V107.667C40.0667 112.111 39.0889 115.511 37.1333 117.867C35.2222 120.222 32.5111 121.4 29 121.4H26.5333V86.7333H29.7333C33.0667 86.7333 35.6222 87.7556 37.4 89.8C39.1778 91.8444 40.0667 94.5111 40.0667 97.8ZM67.1667 152H89.9V73.8667H67.1667V152ZM120.198 152V127.4L116.265 101.8L126.065 121.133L141.931 152H162.265V73.8667H140.998V94.8L144.265 124.467L132.531 99.2L120.265 73.8667H95.7313L98.9979 80.1333V152H120.198ZM209.064 152H233.597C232.664 150.622 231.197 147.756 229.197 143.4C227.197 139 225.264 134.622 223.397 130.267C221.53 125.911 219.53 121.756 217.397 117.8C215.264 113.844 213.552 111.422 212.264 110.533L232.13 73.8667H209.93L193.33 111.267V73.8667H171.264V152H193.33V115.6C195.108 118.578 197.152 122.956 199.464 128.733C201.819 134.467 203.864 139.622 205.597 144.2C207.375 148.733 208.53 151.333 209.064 152Z" fill="#F4608C"/>
<path d="M18.5733 215V194.607L31.1733 195.54V183.967H18.5733V171.273L33.9267 172.207V160.307H3.12667V215H18.5733ZM53.0698 196.8C53.3187 196.8 53.7076 196.816 54.2365 196.847C54.7965 196.878 55.3254 196.909 55.8232 196.94C56.321 196.971 56.8965 197.002 57.5498 197.033C58.2343 197.033 58.8721 197.033 59.4632 197.033C59.5565 197.033 59.6343 197.033 59.6965 197.033C60.2876 198.931 60.7387 201.296 61.0498 204.127C61.3921 206.927 61.6565 209.338 61.8432 211.36C62.0298 213.351 62.2943 214.564 62.6365 215H79.8565C79.2032 214.16 78.5965 212.9 78.0365 211.22C77.5076 209.54 77.0254 207.844 76.5898 206.133C76.1854 204.391 75.7032 202.68 75.1432 201C74.5832 199.289 73.7898 197.811 72.7632 196.567C71.7676 195.322 70.5698 194.529 69.1698 194.187C71.7521 192.538 73.821 190.313 75.3765 187.513C76.9632 184.713 77.7565 181.509 77.7565 177.9C77.7565 171.802 76.0921 167.276 72.7632 164.32C69.4654 161.364 64.4565 159.887 57.7365 159.887C55.8076 159.887 53.3654 159.964 50.4098 160.12C47.4543 160.244 45.2298 160.307 43.7365 160.307H37.5765V215H53.0698V196.8ZM53.0698 188.12V168.893H53.9565C56.601 168.893 58.6232 169.438 60.0232 170.527C61.4543 171.584 62.1698 173.467 62.1698 176.173V179.86C62.1698 181.104 62.0765 182.193 61.8898 183.127C61.7032 184.06 61.4232 184.822 61.0498 185.413C60.6765 186.004 60.2721 186.487 59.8365 186.86C59.4321 187.233 58.9032 187.513 58.2498 187.7C57.6276 187.856 57.0521 187.964 56.5232 188.027C55.9943 188.089 55.341 188.12 54.5632 188.12H53.0698ZM82.9737 215H98.887V160.307H82.9737V215ZM123.689 207.347H120.702V168.38H124.202C126.38 168.38 128.06 169.718 129.242 172.393C130.424 175.069 131.016 178.864 131.016 183.78V188.493C131.016 195.213 130.378 200.036 129.102 202.96C127.858 205.884 126.053 207.347 123.689 207.347ZM125.136 215.327C128.558 215.327 131.607 214.736 134.282 213.553C136.958 212.371 139.104 210.831 140.722 208.933C142.34 207.036 143.678 204.78 144.736 202.167C145.793 199.522 146.509 196.893 146.882 194.28C147.287 191.667 147.489 188.913 147.489 186.02C147.489 177.496 145.762 171.009 142.309 166.56C138.887 162.111 133.209 159.887 125.276 159.887C123.876 159.887 121.947 159.949 119.489 160.073C117.031 160.198 114.76 160.276 112.676 160.307H105.256V215H112.676C115.164 215 117.576 215.047 119.909 215.14C122.273 215.264 124.016 215.327 125.136 215.327ZM178.71 215H195.837L180.25 160.307H160.977L162.097 164.087L147.863 215H161.583L163.357 206.273H176.61L178.71 215ZM169.377 176.36L174.323 196.753H165.27L169.377 176.36ZM207.711 215H224.464V197.64L238.137 160.307H224.231L220.591 174.4L217.931 185.927L214.711 174.4L209.904 160.307H192.217L207.711 197.92V215Z" fill="#F4608C"/>
<defs>
<linearGradient id="paint0_linear_401_15" x1="289" y1="44" x2="289" y2="229" gradientUnits="userSpaceOnUse">
<stop offset="0.661458" stop-color="white"/>
<stop offset="1" stop-color="#DFD9D9"/>
</linearGradient>
</defs>
</svg>
