<svg width="339" height="269" viewBox="0 0 339 269" fill="none" xmlns="http://www.w3.org/2000/svg">
<path d="M22.6211 147.023C17.7383 147.023 13.8711 145.871 11.0195 143.566C8.16797 141.301 6.74219 138.762 6.74219 135.949C6.74219 133.059 7.75781 131.301 9.78906 130.676C10.3359 129.895 10.3359 128.977 9.78906 127.922C7.67969 127.922 5.94141 128.664 4.57422 130.148C3.24609 131.633 2.58203 133.723 2.58203 136.418C2.58203 139.777 4.47656 143.02 8.26562 146.145C12.0547 149.27 16.9961 150.832 23.0898 150.832C31.0977 150.832 38.1094 147.883 44.125 141.984C50.1797 136.125 53.207 128.879 53.207 120.246C53.207 115.051 52.3672 110.676 50.6875 107.121C49.0078 103.566 46.6055 100.832 43.4805 98.918C40.3555 96.9648 36.918 95.5977 33.168 94.8164C29.418 93.9961 25.0625 93.5859 20.1016 93.5859L22.6211 78.8203H51.8594L56.5469 60.832C55.8438 60.2852 54.8867 60.0117 53.6758 60.0117C52.5039 62.2773 51.1953 64.0156 49.75 65.2266C48.3047 66.4375 45.5312 67.1406 41.4297 67.3359H19.3398C18.0117 81.3203 15.8633 92.9219 12.8945 102.141C13.7539 104.055 14.9844 105.168 16.5859 105.48C20.5312 105.48 23.8906 105.676 26.6641 106.066C29.4766 106.457 32.25 107.219 34.9844 108.352C37.7578 109.484 39.8672 111.262 41.3125 113.684C42.7578 116.066 43.4805 119.055 43.4805 122.648C43.4805 131.125 41.4102 137.297 37.2695 141.164C33.168 145.07 28.2852 147.023 22.6211 147.023ZM52.0938 57.6094C55.0625 57.6094 57.4258 58.3711 59.1836 59.8945L53.6758 81.2227H29.6523L28.0117 91.1836C38.7148 91.3398 46.957 93.5664 52.7383 97.8633C58.5586 102.16 61.4688 109.621 61.4688 120.246C61.4688 129.348 57.3867 137.102 49.2227 143.508C41.0586 149.914 32.3086 153.117 22.9727 153.117C18.8711 153.117 15.2578 152.512 12.1328 151.301C9.04688 150.129 6.66406 148.605 4.98438 146.73C3.30469 144.895 2.05469 143.059 1.23438 141.223C0.453125 139.387 0.0625 137.668 0.0625 136.066C0.0625 133.02 1.01953 130.5 2.93359 128.508C4.84766 126.516 7.21094 125.52 10.0234 125.52C15.4531 125.52 18.168 128.527 18.168 134.543C18.168 138.215 16.3711 140.852 12.7773 142.453C13.793 143.234 15.5703 143.82 18.1094 144.211C20.6875 144.641 22.7383 144.738 24.2617 144.504C28.9883 144.074 32.9727 142.121 36.2148 138.645C39.457 135.168 41.0781 129.836 41.0781 122.648C41.0781 119.523 40.3945 116.945 39.0273 114.914C37.6602 112.883 35.6875 111.379 33.1094 110.402C30.5703 109.426 27.9922 108.762 25.375 108.41C22.7969 108.059 19.7109 107.883 16.1172 107.883C14.75 107.57 13.6562 107.043 12.8359 106.301C12.0547 105.52 11.2344 104.211 10.375 102.375C13.4219 92.8438 15.6875 80.3633 17.1719 64.9336H42.4258C44.5352 64.8555 46.2148 64.3867 47.4648 63.5273C48.7148 62.6289 49.6133 61.8086 50.1602 61.0664C50.7461 60.2852 51.3906 59.1328 52.0938 57.6094ZM69.6719 148.195L71.1367 150.48C78.7539 147.824 83.9297 145.793 86.6641 144.387C89.3984 143.02 92.2305 141.477 95.1602 139.758C98.1289 138.078 100.805 136.301 103.188 134.426C106.234 132.199 109.145 129.66 111.918 126.809C114.691 123.957 117.133 120.832 119.242 117.434C121.391 113.996 123.09 110.324 124.34 106.418C125.59 102.473 126.215 98.293 126.215 93.8789C126.215 90.0508 125.805 86.6914 124.984 83.8008C124.164 80.9102 123.051 78.4297 121.645 76.3594C120.277 74.25 118.676 72.4922 116.84 71.0859C115.043 69.6797 113.168 68.5664 111.215 67.7461C109.262 66.9258 107.309 66.3594 105.355 66.0469C103.402 65.6953 101.586 65.5195 99.9062 65.5195C96.4297 65.5195 93.0508 66.1641 89.7695 67.4531C86.5273 68.7031 83.6367 70.5391 81.0977 72.9609C78.5977 75.3438 76.5859 78.2539 75.0625 81.6914C73.5391 85.1289 72.7773 89.0156 72.7773 93.3516C72.7773 98 73.5781 101.965 75.1797 105.246C76.8203 108.527 79.125 111.203 82.0938 113.273C85.0625 115.344 88.6367 116.867 92.8164 117.844C96.9961 118.82 101.645 119.309 106.762 119.309C97.8555 130.91 85.4922 140.539 69.6719 148.195ZM84.3203 93.3516C84.3203 88.625 84.8281 84.5625 85.8438 81.1641C86.8984 77.7656 88.2852 75.2656 90.0039 73.6641C91.7227 72.0625 93.3828 70.9492 94.9844 70.3242C96.5859 69.6992 98.2656 69.3867 100.023 69.3867C104.828 69.3867 108.578 71.3203 111.273 75.1875C114.008 79.0547 115.375 84.5039 115.375 91.5352C115.375 102.824 113.266 110.676 109.047 115.09C99.8281 115.012 93.4219 113.254 89.8281 109.816C86.2344 106.379 84.3984 100.891 84.3203 93.3516ZM74.2422 153.234H70.0234L66.0977 147.258C81.5273 139.797 93.4414 131.223 101.84 121.535C80.8633 120.285 70.375 110.891 70.375 93.3516C70.375 84.0156 73.3438 76.6523 79.2812 71.2617C85.2578 65.832 92.1328 63.1172 99.9062 63.1172C104.32 63.1172 108.383 63.5664 112.094 64.4648C115.805 65.3242 119.438 66.8477 122.992 69.0352C126.547 71.1836 129.34 74.3672 131.371 78.5859C133.441 82.7656 134.477 87.8438 134.477 93.8203C134.477 99.6797 133.363 105.285 131.137 110.637C128.949 115.988 126.078 120.598 122.523 124.465C118.969 128.371 115.043 131.984 110.746 135.305C106.488 138.625 102.211 141.418 97.9141 143.684C93.6172 145.949 85.7266 149.133 74.2422 153.234ZM92.582 93.3516C92.6602 99.4453 93.8125 103.996 96.0391 107.004C98.3047 109.973 102.309 111.789 108.051 112.453C111.332 108.039 112.973 101.066 112.973 91.5352C112.973 85.9492 112.016 81.457 110.102 78.0586C108.188 74.6602 105.551 72.6484 102.191 72.0234C95.7852 73.625 92.582 80.7344 92.582 93.3516ZM160.668 131.379L200.395 70.3242C200.316 69.6992 200.023 69.0547 199.516 68.3906C199.047 67.6875 198.5 67.3359 197.875 67.3359H157.035L154.164 65.5195C153.266 65.5195 152.504 66.0078 151.879 66.9844C151.84 68.2344 151.723 69.7578 151.527 71.5547C151.332 73.3516 151.059 75.207 150.707 77.1211C150.395 79.0352 150.023 80.8711 149.594 82.6289C149.203 84.3867 148.773 85.8516 148.305 87.0234C149.164 87.9609 150.277 88.4297 151.645 88.4297C151.645 88.3516 151.84 87.9609 152.23 87.2578C152.66 86.5156 153.344 85.4219 154.281 83.9766C155.102 82.7656 156 81.8086 156.977 81.1055C157.953 80.4023 158.93 79.8945 159.906 79.582C160.883 79.2305 161.781 79.0156 162.602 78.9375C163.422 78.8594 164.105 78.8203 164.652 78.8203H187.562L152.758 131.262L149.066 136.594C148.832 136.945 148.598 137.375 148.363 137.883C148.129 138.43 147.895 138.996 147.66 139.582C147.465 140.168 147.289 140.754 147.133 141.34C147.016 141.965 146.957 142.531 146.957 143.039C146.957 145.422 147.719 147.336 149.242 148.781C150.805 150.227 153.168 150.949 156.332 150.949C156.605 150.793 156.84 150.52 157.035 150.129C157.23 149.777 157.328 149.387 157.328 148.957C157.328 148.527 157.23 148.195 157.035 147.961C155.043 147.883 154.047 146.984 154.047 145.266C154.203 142.609 156.41 137.98 160.668 131.379ZM157.328 90.832C155.492 90.832 153.988 90.8125 152.816 90.7734C151.684 90.7344 150.688 90.6172 149.828 90.4219C149.008 90.1875 148.266 89.8555 147.602 89.4258C146.977 88.957 146.293 88.3125 145.551 87.4922C146.02 86.2031 146.488 84.6211 146.957 82.7461C147.426 80.832 147.836 78.8789 148.188 76.8867C148.539 74.8555 148.832 72.8828 149.066 70.9688C149.301 69.0547 149.438 67.4336 149.477 66.1055C150.805 64.1133 152.621 63.1172 154.926 63.1172L157.914 64.9336H199.516C200.375 64.9336 201.234 65.1484 202.094 65.5781C202.992 65.9688 203.793 66.4766 204.496 67.1016C205.199 67.6875 205.785 68.332 206.254 69.0352C206.762 69.6992 207.055 70.3242 207.133 70.9102L163.188 137.648C164.867 139.445 165.707 141.555 165.707 143.977C165.707 145.266 165.453 146.457 164.945 147.551C164.477 148.684 163.773 149.66 162.836 150.48C161.938 151.34 160.824 152.004 159.496 152.473C158.207 152.98 156.723 153.234 155.043 153.234C151.723 153.234 149.145 152.316 147.309 150.48C145.473 148.684 144.555 146.203 144.555 143.039C144.555 142.453 144.613 141.828 144.73 141.164C144.887 140.539 145.043 139.914 145.199 139.289C145.395 138.703 145.59 138.156 145.785 137.648C146.02 137.141 146.234 136.73 146.43 136.418C146.586 136.105 149.73 131.34 155.863 122.121C161.996 112.902 171.078 99.2305 183.109 81.1055H168.344C167.055 81.1055 165.902 81.3008 164.887 81.6914C163.91 82.082 162.992 82.6875 162.133 83.5078C161.312 84.2891 160.512 85.2852 159.73 86.4961C158.988 87.707 158.188 89.1523 157.328 90.832Z" fill="black"/>
<path d="M272.844 131.961C272.844 127.469 274.465 123.66 277.707 120.535C280.949 117.371 284.855 115.789 289.426 115.789C293.879 115.789 297.688 117.371 300.852 120.535C304.016 123.66 305.598 127.469 305.598 131.961C305.598 136.297 303.996 140.047 300.793 143.211C297.59 146.336 293.801 147.898 289.426 147.898C284.934 147.898 281.047 146.336 277.766 143.211C274.484 140.047 272.844 136.297 272.844 131.961ZM267.688 131.844C267.688 137.938 269.797 143.113 274.016 147.371C278.273 151.59 283.449 153.699 289.543 153.699C295.363 153.699 300.344 151.59 304.484 147.371C308.664 143.113 310.754 137.938 310.754 131.844C310.754 125.75 308.664 120.555 304.484 116.258C300.344 111.922 295.363 109.754 289.543 109.754C283.449 109.754 278.273 111.902 274.016 116.199C269.797 120.457 267.688 125.672 267.688 131.844ZM217.18 86.2578C217.18 81.7656 218.801 77.9375 222.043 74.7734C225.285 71.6094 229.172 70.0273 233.703 70.0273C238.195 70.0273 242.023 71.6094 245.188 74.7734C248.352 77.9375 249.934 81.7656 249.934 86.2578C249.934 90.5547 248.332 94.2852 245.129 97.4492C241.926 100.613 238.117 102.195 233.703 102.195C229.25 102.195 225.383 100.613 222.102 97.4492C218.82 94.2852 217.18 90.5547 217.18 86.2578ZM212.023 86.1406C212.023 92.1953 214.133 97.3516 218.352 101.609C222.609 105.828 227.766 107.938 233.82 107.938C239.68 107.938 244.68 105.828 248.82 101.609C253 97.3516 255.09 92.1953 255.09 86.1406C255.09 80.0469 253 74.8516 248.82 70.5547C244.68 66.2188 239.68 64.0508 233.82 64.0508C227.766 64.0508 222.609 66.1992 218.352 70.4961C214.133 74.7539 212.023 79.9688 212.023 86.1406ZM280.871 60.6523L236.457 155.574L241.613 157.742L286.027 62.5859L280.871 60.6523ZM209.621 86.1406C209.621 79.3438 211.965 73.5625 216.652 68.7969C221.379 64.0312 227.102 61.6484 233.82 61.6484C238.781 61.6484 243.332 62.4492 247.473 64.0508C251.652 65.6523 255.207 68.3672 258.137 72.1953C261.066 76.0234 262.531 80.6719 262.531 86.1406C262.531 93.0156 259.914 98.7773 254.68 103.426C249.445 108.035 242.492 110.34 233.82 110.34C227.102 110.34 221.379 107.996 216.652 103.309C211.965 98.582 209.621 92.8594 209.621 86.1406ZM265.285 131.844C265.285 125.047 267.648 119.266 272.375 114.5C277.102 109.734 282.824 107.352 289.543 107.352C298.176 107.352 305.109 109.695 310.344 114.383C315.578 119.07 318.195 124.891 318.195 131.844C318.195 138.719 315.578 144.48 310.344 149.129C305.109 153.777 298.176 156.102 289.543 156.102C282.824 156.102 277.102 153.738 272.375 149.012C267.648 144.285 265.285 138.562 265.285 131.844ZM233.352 156.805L279.699 57.6641H283.859L293.469 61.1797L247.062 160.906H242.844L233.352 156.805ZM280.285 131.961C280.285 135.242 281.359 138.172 283.508 140.75C285.695 143.289 288.371 144.832 291.535 145.379C294.816 144.832 297.57 143.289 299.797 140.75C302.062 138.172 303.195 135.242 303.195 131.961C303.195 128.523 302.062 125.535 299.797 122.996C297.57 120.418 294.816 118.895 291.535 118.426C288.371 118.895 285.695 120.418 283.508 122.996C281.359 125.535 280.285 128.523 280.285 131.961ZM224.621 86.2578C224.621 89.5391 225.695 92.4688 227.844 95.0469C229.992 97.5859 232.668 99.1289 235.871 99.6758C239.152 99.1289 241.906 97.5859 244.133 95.0469C246.398 92.4688 247.531 89.5391 247.531 86.2578C247.531 82.8984 246.418 79.9492 244.191 77.4102C242.004 74.832 239.23 73.25 235.871 72.6641C232.668 73.1719 229.992 74.7148 227.844 77.293C225.695 79.832 224.621 82.8203 224.621 86.2578Z" fill="black"/>
<path d="M122.598 141.336C121.387 142.664 120.781 144.344 120.781 146.375C120.781 147.352 120.938 148.289 121.25 149.188C121.602 150.047 122.07 150.809 122.656 151.473C123.242 152.098 123.906 152.605 124.648 152.996C125.43 153.387 126.27 153.582 127.168 153.582C128.027 153.582 128.828 153.387 129.57 152.996C130.352 152.605 131.035 152.098 131.621 151.473C132.207 150.809 132.656 150.047 132.969 149.188C133.32 148.289 133.496 147.352 133.496 146.375C133.496 145.398 133.32 144.48 132.969 143.621C132.656 142.762 132.207 142 131.621 141.336C131.035 140.672 130.352 140.145 129.57 139.754C128.828 139.363 128.027 139.168 127.168 139.168C125.41 139.168 123.887 139.891 122.598 141.336ZM127.988 136.766C136.777 136.766 141.172 139.969 141.172 146.375C141.172 152.781 136.777 155.984 127.988 155.984C126.699 155.984 125.469 155.73 124.297 155.223C123.164 154.715 122.148 154.031 121.25 153.172C120.391 152.312 119.688 151.297 119.141 150.125C118.633 148.953 118.379 147.703 118.379 146.375C118.379 145.047 118.633 143.797 119.141 142.625C119.648 141.453 120.332 140.438 121.191 139.578C122.09 138.719 123.125 138.035 124.297 137.527C125.469 137.02 126.699 136.766 127.988 136.766Z" fill="black"/>
<path d="M321.918 69.502C321.918 69.7051 321.935 69.8913 321.969 70.0605L317.602 71.1523C315.621 71.694 314.631 72.7012 314.631 74.1738C314.631 75.3249 315.393 75.9004 316.916 75.9004C317.221 75.9004 317.585 75.7734 318.008 75.5195C318.448 75.2656 318.922 74.8678 319.43 74.3262L322.604 71.0508C322.908 71.3555 323.238 71.5332 323.594 71.584L322.273 75.9512C322.104 76.5267 322.02 77.0768 322.02 77.6016C322.02 79.3281 322.73 80.1914 324.152 80.1914C324.812 80.1914 325.32 79.9375 325.676 79.4297C326.048 78.9219 326.234 78.2617 326.234 77.4492C326.234 76.9076 326.167 76.4082 326.031 75.9512L324.686 71.5078C325.058 71.4062 325.363 71.237 325.6 71L328.9 74.3262C329.831 75.291 330.796 75.7734 331.795 75.7734C333.048 75.7734 333.674 75.1895 333.674 74.0215C333.674 72.6165 332.684 71.6602 330.703 71.1523L326.184 70.0098C326.217 69.8743 326.234 69.7051 326.234 69.502C326.234 69.3665 326.201 69.1719 326.133 68.918L330.703 67.8262C331.617 67.6061 332.337 67.2337 332.861 66.709C333.403 66.1842 333.674 65.5495 333.674 64.8047C333.674 64.3984 333.513 64.0345 333.191 63.7129C332.887 63.3743 332.421 63.2051 331.795 63.2051C330.813 63.2389 329.848 63.7383 328.9 64.7031L325.676 68.0293C325.49 67.8262 325.16 67.623 324.686 67.4199L326.031 63.002C326.099 62.7311 326.15 62.4688 326.184 62.2148C326.217 61.9609 326.234 61.6986 326.234 61.4277C326.234 60.6152 326.048 59.9805 325.676 59.5234C325.32 59.0664 324.812 58.8379 324.152 58.8379C323.492 58.8379 322.967 59.0664 322.578 59.5234C322.206 59.9635 322.02 60.5645 322.02 61.3262C322.02 61.5632 322.036 61.8255 322.07 62.1133C322.104 62.3841 322.172 62.6803 322.273 63.002L323.594 67.3691C323.171 67.4707 322.824 67.6569 322.553 67.9277L319.1 64.3477C318.863 64.1107 318.668 63.916 318.516 63.7637C318.363 63.6113 318.194 63.4928 318.008 63.4082C317.822 63.3066 317.602 63.2389 317.348 63.2051C317.094 63.1712 316.764 63.1543 316.357 63.1543C316.12 63.1543 315.9 63.2051 315.697 63.3066C315.494 63.4082 315.308 63.5436 315.139 63.7129C314.986 63.8652 314.859 64.043 314.758 64.2461C314.673 64.4323 314.631 64.6185 314.631 64.8047C314.631 66.362 315.621 67.3691 317.602 67.8262L321.969 68.918C321.935 69.0534 321.918 69.248 321.918 69.502ZM313.59 74.1738C313.59 72.1257 314.842 70.7884 317.348 70.1621L320.039 69.502L317.348 68.8164H317.398C314.859 68.2578 313.59 66.9206 313.59 64.8047C313.59 64.2122 313.861 63.6198 314.402 63.0273C314.944 62.418 315.596 62.1133 316.357 62.1133C318.05 62.1133 319.701 62.528 321.309 63.3574C321.089 62.6296 320.979 61.9525 320.979 61.3262C320.979 60.2598 321.258 59.4049 321.816 58.7617C322.375 58.1185 323.154 57.7969 324.152 57.7969C324.948 57.7969 325.591 57.8307 326.082 57.8984C326.573 57.9661 327.072 58.1185 327.58 58.3555C328.105 58.5755 328.486 58.9395 328.723 59.4473C328.977 59.9382 329.104 60.5983 329.104 61.4277C329.104 62.0879 328.993 62.7311 328.773 63.3574C329.654 62.5618 330.661 62.1641 331.795 62.1641H333.623C334.554 62.1641 335.273 62.4434 335.781 63.002C336.289 63.5436 336.543 64.1445 336.543 64.8047C336.543 65.668 336.171 66.472 335.426 67.2168C334.681 67.9447 333.801 68.4779 332.785 68.8164L330.145 69.5527L332.785 70.1621C335.29 70.8561 336.543 72.1426 336.543 74.0215C336.543 74.8509 336.298 75.528 335.807 76.0527C335.316 76.5605 334.588 76.8145 333.623 76.8145C331.304 76.8145 329.704 76.4505 328.824 75.7227C329.01 76.2812 329.104 76.8568 329.104 77.4492C329.104 79.9714 327.453 81.2324 324.152 81.2324C322.036 81.2324 320.979 80.0221 320.979 77.6016C320.979 76.9076 321.063 76.2812 321.232 75.7227C320.301 76.5182 319.472 76.916 318.744 76.916H316.916C315.985 76.916 315.198 76.696 314.555 76.2559C313.911 75.7988 313.59 75.1048 313.59 74.1738Z" fill="black"/>
<path d="M21.328 210.784H18.512V174.044H21.812C23.8653 174.044 25.4493 175.305 26.564 177.828C27.6787 180.351 28.236 183.929 28.236 188.564V193.008C28.236 199.344 27.6347 203.891 26.432 206.648C25.2587 209.405 23.5573 210.784 21.328 210.784ZM22.692 218.308C25.9187 218.308 28.7933 217.751 31.316 216.636C33.8387 215.521 35.8627 214.069 37.388 212.28C38.9133 210.491 40.1747 208.364 41.172 205.9C42.1693 203.407 42.844 200.928 43.196 198.464C43.5773 196 43.768 193.404 43.768 190.676C43.768 182.639 42.14 176.523 38.884 172.328C35.6573 168.133 30.304 166.036 22.824 166.036C21.504 166.036 19.6853 166.095 17.368 166.212C15.0507 166.329 12.9093 166.403 10.944 166.432H3.948V218H10.944C13.2907 218 15.564 218.044 17.764 218.132C19.9933 218.249 21.636 218.308 22.692 218.308ZM48.037 218H63.041V166.432H48.037V218ZM84.4017 218.924C89.8283 218.924 93.9643 217.413 96.8097 214.392C99.6843 211.341 101.122 206.912 101.122 201.104C101.122 197.525 100.11 194.489 98.0857 191.996C96.091 189.503 92.9523 187.347 88.6697 185.528C88.259 185.264 87.643 184.927 86.8217 184.516C86.0297 184.076 85.399 183.709 84.9297 183.416C84.4897 183.123 84.0057 182.771 83.4777 182.36C82.9497 181.949 82.5683 181.495 82.3337 180.996C82.099 180.497 81.9817 179.94 81.9817 179.324C81.9817 176.977 83.859 175.804 87.6137 175.804C89.1683 175.804 90.7963 176.141 92.4977 176.816C94.2283 177.461 95.6657 178.459 96.8097 179.808L99.0097 171.316C98.9217 171.169 98.775 170.979 98.5697 170.744C98.3643 170.48 97.8657 170.04 97.0737 169.424C96.311 168.779 95.4603 168.221 94.5217 167.752C93.583 167.283 92.2777 166.857 90.6057 166.476C88.963 166.065 87.203 165.86 85.3257 165.86C73.5043 165.86 67.5937 171.096 67.5937 181.568C67.5937 183.504 67.887 185.323 68.4737 187.024C69.0603 188.696 69.735 190.075 70.4977 191.16C71.2603 192.216 72.243 193.243 73.4457 194.24C74.6777 195.208 75.6603 195.912 76.3937 196.352C77.127 196.763 78.0217 197.232 79.0777 197.76C81.9817 199.168 84.0203 200.371 85.1937 201.368C86.3963 202.365 86.9977 203.568 86.9977 204.976C86.9977 206.296 86.4697 207.205 85.4137 207.704C84.387 208.203 82.7003 208.452 80.3537 208.452C78.007 208.452 75.8217 207.865 73.7977 206.692C71.7737 205.489 70.1603 204.081 68.9577 202.468L67.8577 213.16C68.415 213.747 69.1043 214.333 69.9257 214.92C70.7763 215.507 71.8617 216.123 73.1817 216.768C74.5017 217.413 76.1297 217.927 78.0657 218.308C80.031 218.719 82.143 218.924 84.4017 218.924ZM138.344 214.348L136.364 207.396C135.308 208.159 133.959 208.731 132.316 209.112C130.673 209.464 129.104 209.64 127.608 209.64C126.933 209.64 126.303 209.552 125.716 209.376C125.129 209.171 124.469 208.716 123.736 208.012C123.003 207.308 122.372 206.384 121.844 205.24C121.316 204.067 120.861 202.395 120.48 200.224C120.128 198.053 119.952 195.516 119.952 192.612C119.952 187.743 120.231 184.017 120.788 181.436C121.345 178.825 122.152 177.08 123.208 176.2C124.264 175.291 125.775 174.836 127.74 174.836C128.092 174.836 128.532 174.909 129.06 175.056L131.348 180.292H138.036L138.696 170.172C138.608 170.055 138.461 169.893 138.256 169.688C138.08 169.483 137.611 169.116 136.848 168.588C136.115 168.06 135.279 167.591 134.34 167.18C133.431 166.769 132.169 166.403 130.556 166.08C128.972 165.757 127.271 165.596 125.452 165.596C121.492 165.596 118.133 166.197 115.376 167.4C112.619 168.603 110.448 170.407 108.864 172.812C107.309 175.188 106.195 177.96 105.52 181.128C104.845 184.267 104.508 188.007 104.508 192.348C104.508 196.425 104.845 200.019 105.52 203.128C106.195 206.208 107.295 208.98 108.82 211.444C110.375 213.879 112.516 215.741 115.244 217.032C117.972 218.293 121.257 218.924 125.1 218.924C126.919 218.924 128.62 218.763 130.204 218.44C131.788 218.147 133.049 217.78 133.988 217.34C134.956 216.871 135.777 216.416 136.452 215.976C137.156 215.507 137.655 215.125 137.948 214.832L138.344 214.348ZM157.18 198.068V187.024C157.18 181.715 157.547 178.063 158.28 176.068C159.043 174.044 160.363 173.032 162.24 173.032C164.118 173.032 165.467 174.059 166.288 176.112C167.11 178.165 167.52 181.289 167.52 185.484V196.088C167.52 200.4 167.33 203.641 166.948 205.812C166.596 207.953 166.068 209.376 165.364 210.08C164.66 210.755 163.619 211.092 162.24 211.092C160.363 211.092 159.043 210.139 158.28 208.232C157.547 206.325 157.18 202.937 157.18 198.068ZM161.316 218.924C164.895 218.924 167.99 218.528 170.6 217.736C173.24 216.915 175.396 215.8 177.068 214.392C178.74 212.955 180.075 211.107 181.072 208.848C182.07 206.56 182.759 204.111 183.14 201.5C183.522 198.889 183.712 195.824 183.712 192.304C183.712 189.928 183.639 187.801 183.492 185.924C183.346 184.047 183.082 182.155 182.7 180.248C182.319 178.341 181.806 176.684 181.16 175.276C180.544 173.839 179.708 172.489 178.652 171.228C177.626 169.967 176.408 168.94 175 168.148C173.592 167.356 171.906 166.74 169.94 166.3C167.975 165.831 165.76 165.596 163.296 165.596C159.718 165.596 156.608 166.007 153.968 166.828C151.358 167.649 149.216 168.779 147.544 170.216C145.902 171.653 144.582 173.531 143.584 175.848C142.587 178.136 141.898 180.585 141.516 183.196C141.164 185.807 140.988 188.872 140.988 192.392C140.988 194.768 141.062 196.909 141.208 198.816C141.355 200.693 141.619 202.585 142 204.492C142.382 206.369 142.88 208.012 143.496 209.42C144.142 210.828 144.978 212.148 146.004 213.38C147.06 214.612 148.292 215.624 149.7 216.416C151.108 217.208 152.78 217.824 154.716 218.264C156.682 218.704 158.882 218.924 161.316 218.924ZM208.216 218.924C211.296 218.924 213.995 218.631 216.312 218.044C218.659 217.457 220.551 216.68 221.988 215.712C223.455 214.715 224.628 213.483 225.508 212.016C226.417 210.52 227.033 208.98 227.356 207.396C227.708 205.812 227.884 204.037 227.884 202.072V166.432H213.98V199.96C213.98 201.837 213.833 203.436 213.54 204.756C213.276 206.047 212.88 207.044 212.352 207.748C211.824 208.423 211.252 208.907 210.636 209.2C210.02 209.464 209.301 209.596 208.48 209.596C206.984 209.596 205.84 208.907 205.048 207.528C204.285 206.12 203.904 203.553 203.904 199.828V166.432H188.24V201.808C188.24 203.803 188.431 205.621 188.812 207.264C189.193 208.907 189.853 210.476 190.792 211.972C191.76 213.439 192.977 214.671 194.444 215.668C195.94 216.665 197.847 217.457 200.164 218.044C202.511 218.631 205.195 218.924 208.216 218.924ZM247.78 218V201.764L245.184 184.868L251.652 197.628L262.124 218H275.544V166.432H261.508V180.248L263.664 199.828L255.92 183.152L247.824 166.432H231.632L233.788 170.568V218H247.78ZM289.667 218H304.539V178.092H314.835V166.432H279.371V178.092H289.667V218Z" fill="white"/>
</svg>
