<svg width="2000" height="1000" viewBox="0 0 2000 1000" fill="none" xmlns="http://www.w3.org/2000/svg">
<rect width="2000" height="1000" fill="#F0BA53"/>
<path d="M714.625 543V455.727H775.989V474.818H738.318V489.818H772.239V508.909H738.318V543H714.625ZM808.396 455.727V543H784.703V455.727H808.396ZM895.136 455.727V543H875.364L843.83 497.148H843.318V543H819.625V455.727H839.739L870.761 501.409H871.443V455.727H895.136ZM930.037 455.727V543H906.344V455.727H930.037ZM988.311 483C988.084 480.159 987.018 477.943 985.115 476.352C983.24 474.761 980.385 473.966 976.55 473.966C974.107 473.966 972.104 474.264 970.541 474.861C969.007 475.429 967.871 476.21 967.132 477.205C966.393 478.199 966.01 479.335 965.982 480.614C965.925 481.665 966.109 482.616 966.536 483.469C966.99 484.293 967.7 485.045 968.666 485.727C969.632 486.381 970.868 486.977 972.374 487.517C973.879 488.057 975.669 488.54 977.743 488.966L984.902 490.5C989.732 491.523 993.865 492.872 997.303 494.548C1000.74 496.224 1003.55 498.199 1005.74 500.472C1007.93 502.716 1009.53 505.244 1010.56 508.057C1011.61 510.869 1012.15 513.937 1012.17 517.261C1012.15 523 1010.71 527.858 1007.87 531.835C1005.03 535.812 1000.97 538.838 995.683 540.912C990.428 542.986 984.107 544.023 976.72 544.023C969.135 544.023 962.516 542.901 956.862 540.656C951.237 538.412 946.862 534.96 943.737 530.301C940.641 525.614 939.078 519.619 939.05 512.318H961.55C961.692 514.989 962.359 517.233 963.553 519.051C964.746 520.869 966.422 522.247 968.581 523.185C970.768 524.122 973.368 524.591 976.379 524.591C978.908 524.591 981.024 524.278 982.729 523.653C984.433 523.028 985.726 522.162 986.607 521.054C987.487 519.946 987.942 518.682 987.97 517.261C987.942 515.926 987.501 514.761 986.649 513.767C985.825 512.744 984.462 511.835 982.558 511.04C980.655 510.216 978.084 509.449 974.845 508.739L966.152 506.864C958.425 505.187 952.331 502.389 947.871 498.469C943.439 494.52 941.237 489.136 941.266 482.318C941.237 476.778 942.714 471.935 945.697 467.787C948.709 463.611 952.871 460.358 958.183 458.028C963.524 455.699 969.646 454.534 976.55 454.534C983.595 454.534 989.689 455.713 994.831 458.071C999.973 460.429 1003.94 463.753 1006.72 468.043C1009.53 472.304 1010.95 477.29 1010.98 483H988.311ZM1021.19 543V455.727H1044.88V489.818H1076.24V455.727H1099.94V543H1076.24V508.909H1044.88V543H1021.19ZM1111.19 543V455.727H1174.09V474.818H1134.88V489.818H1170.85V508.909H1134.88V523.909H1173.91V543H1111.19ZM1219.42 543H1185.84V455.727H1219.07C1228.05 455.727 1235.81 457.474 1242.34 460.969C1248.9 464.435 1253.96 469.435 1257.51 475.969C1261.09 482.474 1262.88 490.273 1262.88 499.364C1262.88 508.455 1261.11 516.267 1257.55 522.801C1254 529.307 1248.98 534.307 1242.47 537.801C1235.96 541.267 1228.28 543 1219.42 543ZM1209.53 522.886H1218.56C1222.88 522.886 1226.56 522.19 1229.6 520.798C1232.67 519.406 1235 517.006 1236.59 513.597C1238.21 510.187 1239.02 505.443 1239.02 499.364C1239.02 493.284 1238.19 488.54 1236.55 485.131C1234.93 481.722 1232.54 479.321 1229.39 477.929C1226.26 476.537 1222.43 475.841 1217.88 475.841H1209.53V522.886ZM1301.46 455.727L1299.24 515.727H1279.81L1277.59 455.727H1301.46ZM1289.53 544.364C1286.23 544.364 1283.4 543.213 1281.05 540.912C1278.72 538.582 1277.57 535.756 1277.59 532.432C1277.57 529.193 1278.72 526.423 1281.05 524.122C1283.4 521.821 1286.23 520.67 1289.53 520.67C1292.65 520.67 1295.41 521.821 1297.79 524.122C1300.21 526.423 1301.43 529.193 1301.46 532.432C1301.43 534.648 1300.85 536.665 1299.71 538.483C1298.6 540.273 1297.15 541.707 1295.36 542.787C1293.57 543.838 1291.63 544.364 1289.53 544.364Z" fill="white"/>
</svg>
