<svg width="7728" height="1057" viewBox="0 0 7728 1057" fill="none" xmlns="http://www.w3.org/2000/svg">
<rect y="4" width="7728" height="1052" fill="#F0BA53"/>
<path d="M2085 1056L3104.79 0L5558 7.52137V1056H2085Z" fill="white"/>
<rect x="5302" y="4.0957" width="2426" height="1051.45" fill="#F0BA53"/>
<path d="M5258 23.5L5302 4V43L5258 23.5Z" fill="#F0BA53"/>
<path d="M5258 62.5L5302 43V82L5258 62.5Z" fill="#F0BA53"/>
<path d="M5258 101.5L5302 82V121L5258 101.5Z" fill="#F0BA53"/>
<path d="M5258 140.5L5302 121V160L5258 140.5Z" fill="#F0BA53"/>
<path d="M5258 179.5L5302 160V199L5258 179.5Z" fill="#F0BA53"/>
<path d="M5258 218.5L5302 199V238L5258 218.5Z" fill="#F0BA53"/>
<path d="M5258 257.5L5302 238V277L5258 257.5Z" fill="#F0BA53"/>
<path d="M5258 296.5L5302 277V316L5258 296.5Z" fill="#F0BA53"/>
<path d="M5258 335.5L5302 316V355L5258 335.5Z" fill="#F0BA53"/>
<path d="M5258 374.5L5302 355V394L5258 374.5Z" fill="#F0BA53"/>
<path d="M5258 413.5L5302 394V433L5258 413.5Z" fill="#F0BA53"/>
<path d="M5258 452.5L5302 433V472L5258 452.5Z" fill="#F0BA53"/>
<path d="M5258 491.5L5302 472V511L5258 491.5Z" fill="#F0BA53"/>
<path d="M5258 530.5L5302 511V550L5258 530.5Z" fill="#F0BA53"/>
<path d="M5258 569.5L5302 550V589L5258 569.5Z" fill="#F0BA53"/>
<path d="M5258 608.5L5302 589V628L5258 608.5Z" fill="#F0BA53"/>
<path d="M5258 647.5L5302 628V667L5258 647.5Z" fill="#F0BA53"/>
<path d="M5258 686.5L5302 667V706L5258 686.5Z" fill="#F0BA53"/>
<path d="M5258 725.5L5302 706V745L5258 725.5Z" fill="#F0BA53"/>
<path d="M5258 764.5L5302 745V784L5258 764.5Z" fill="#F0BA53"/>
<path d="M5258 803.5L5302 784V823L5258 803.5Z" fill="#F0BA53"/>
<path d="M5258 842.5L5302 823V862L5258 842.5Z" fill="#F0BA53"/>
<path d="M5258 881.5L5302 862V901L5258 881.5Z" fill="#F0BA53"/>
<path d="M5258 920.5L5302 901V940L5258 920.5Z" fill="#F0BA53"/>
<path d="M5258 959.5L5302 940V979L5258 959.5Z" fill="#F0BA53"/>
<path d="M5258 998.5L5302 979V1018L5258 998.5Z" fill="#F0BA53"/>
<path d="M5258 1037.5L5302 1018V1057L5258 1037.5Z" fill="#F0BA53"/>
<path d="M5707.91 890.455C5707.91 900.697 5705.94 909.379 5702 916.5C5698.06 923.621 5692.73 929.03 5686 932.727C5679.3 936.424 5671.79 938.273 5663.45 938.273C5655.09 938.273 5647.56 936.409 5640.86 932.682C5634.17 928.955 5628.85 923.545 5624.91 916.455C5621 909.333 5619.05 900.667 5619.05 890.455C5619.05 880.212 5621 871.53 5624.91 864.409C5628.85 857.288 5634.17 851.879 5640.86 848.182C5647.56 844.485 5655.09 842.636 5663.45 842.636C5671.79 842.636 5679.3 844.485 5686 848.182C5692.73 851.879 5698.06 857.288 5702 864.409C5705.94 871.53 5707.91 880.212 5707.91 890.455ZM5684.91 890.455C5684.91 884.394 5684.05 879.273 5682.32 875.091C5680.62 870.909 5678.17 867.742 5674.95 865.591C5671.77 863.439 5667.94 862.364 5663.45 862.364C5659 862.364 5655.17 863.439 5651.95 865.591C5648.74 867.742 5646.27 870.909 5644.55 875.091C5642.85 879.273 5642 884.394 5642 890.455C5642 896.515 5642.85 901.636 5644.55 905.818C5646.27 910 5648.74 913.167 5651.95 915.318C5655.17 917.47 5659 918.545 5663.45 918.545C5667.94 918.545 5671.77 917.47 5674.95 915.318C5678.17 913.167 5680.62 910 5682.32 905.818C5684.05 901.636 5684.91 896.515 5684.91 890.455ZM5760.73 867.182V883.545H5715.82V867.182H5760.73ZM5725.18 937V863.636C5725.18 858.242 5726.2 853.773 5728.23 850.227C5730.26 846.652 5733.08 843.985 5736.68 842.227C5740.29 840.439 5744.45 839.545 5749.18 839.545C5752.27 839.545 5755.18 839.788 5757.91 840.273C5760.67 840.727 5762.71 841.136 5764.05 841.5L5760.5 857.773C5759.68 857.5 5758.68 857.273 5757.5 857.091C5756.35 856.909 5755.26 856.818 5754.23 856.818C5751.62 856.818 5749.83 857.394 5748.86 858.545C5747.89 859.697 5747.41 861.273 5747.41 863.273V937H5725.18ZM5811.1 867.182V883.545H5766.19V867.182H5811.1ZM5775.56 937V863.636C5775.56 858.242 5776.57 853.773 5778.6 850.227C5780.63 846.652 5783.45 843.985 5787.06 842.227C5790.66 840.439 5794.83 839.545 5799.56 839.545C5802.65 839.545 5805.56 839.788 5808.28 840.273C5811.04 840.727 5813.09 841.136 5814.42 841.5L5810.88 857.773C5810.06 857.5 5809.06 857.273 5807.88 857.091C5806.72 856.909 5805.63 856.818 5804.6 856.818C5802 856.818 5800.21 857.394 5799.24 858.545C5798.27 859.697 5797.78 861.273 5797.78 863.273V937H5775.56ZM5852.18 938.318C5844.88 938.318 5838.58 936.879 5833.27 934C5828 931.091 5823.94 926.955 5821.09 921.591C5818.27 916.197 5816.86 909.788 5816.86 902.364C5816.86 895.152 5818.29 888.848 5821.14 883.455C5823.98 878.03 5828 873.818 5833.18 870.818C5838.36 867.788 5844.47 866.273 5851.5 866.273C5856.47 866.273 5861.02 867.045 5865.14 868.591C5869.26 870.136 5872.82 872.424 5875.82 875.455C5878.82 878.485 5881.15 882.227 5882.82 886.682C5884.48 891.106 5885.32 896.182 5885.32 901.909V907.455H5824.64V894.545H5864.64C5864.61 892.182 5864.05 890.076 5862.95 888.227C5861.86 886.379 5860.36 884.939 5858.45 883.909C5856.58 882.848 5854.41 882.318 5851.95 882.318C5849.47 882.318 5847.24 882.879 5845.27 884C5843.3 885.091 5841.74 886.591 5840.59 888.5C5839.44 890.379 5838.83 892.515 5838.77 894.909V908.045C5838.77 910.894 5839.33 913.394 5840.45 915.545C5841.58 917.667 5843.17 919.318 5845.23 920.5C5847.29 921.682 5849.74 922.273 5852.59 922.273C5854.56 922.273 5856.35 922 5857.95 921.455C5859.56 920.909 5860.94 920.106 5862.09 919.045C5863.24 917.985 5864.11 916.682 5864.68 915.136L5885.09 915.727C5884.24 920.303 5882.38 924.288 5879.5 927.682C5876.65 931.045 5872.91 933.667 5868.27 935.545C5863.64 937.394 5858.27 938.318 5852.18 938.318ZM5896.67 937V867.182H5918.26V879.909H5918.99C5920.26 875.303 5922.34 871.879 5925.22 869.636C5928.09 867.364 5931.44 866.227 5935.26 866.227C5936.29 866.227 5937.35 866.303 5938.44 866.455C5939.53 866.576 5940.55 866.773 5941.49 867.045V886.364C5940.43 886 5939.03 885.712 5937.31 885.5C5935.61 885.288 5934.09 885.182 5932.76 885.182C5930.13 885.182 5927.75 885.773 5925.62 886.955C5923.53 888.106 5921.88 889.727 5920.67 891.818C5919.49 893.879 5918.9 896.303 5918.9 899.091V937H5896.67ZM6010.68 938.318C6003.38 938.318 5997.08 936.879 5991.77 934C5986.5 931.091 5982.44 926.955 5979.59 921.591C5976.77 916.197 5975.36 909.788 5975.36 902.364C5975.36 895.152 5976.79 888.848 5979.64 883.455C5982.48 878.03 5986.5 873.818 5991.68 870.818C5996.86 867.788 6002.97 866.273 6010 866.273C6014.97 866.273 6019.52 867.045 6023.64 868.591C6027.76 870.136 6031.32 872.424 6034.32 875.455C6037.32 878.485 6039.65 882.227 6041.32 886.682C6042.98 891.106 6043.82 896.182 6043.82 901.909V907.455H5983.14V894.545H6023.14C6023.11 892.182 6022.55 890.076 6021.45 888.227C6020.36 886.379 6018.86 884.939 6016.95 883.909C6015.08 882.848 6012.91 882.318 6010.45 882.318C6007.97 882.318 6005.74 882.879 6003.77 884C6001.8 885.091 6000.24 886.591 5999.09 888.5C5997.94 890.379 5997.33 892.515 5997.27 894.909V908.045C5997.27 910.894 5997.83 913.394 5998.95 915.545C6000.08 917.667 6001.67 919.318 6003.73 920.5C6005.79 921.682 6008.24 922.273 6011.09 922.273C6013.06 922.273 6014.85 922 6016.45 921.455C6018.06 920.909 6019.44 920.106 6020.59 919.045C6021.74 917.985 6022.61 916.682 6023.18 915.136L6043.59 915.727C6042.74 920.303 6040.88 924.288 6038 927.682C6035.15 931.045 6031.41 933.667 6026.77 935.545C6022.14 937.394 6016.77 938.318 6010.68 938.318ZM6073.08 867.182L6084.58 890.182L6096.49 867.182H6118.9L6099.4 902.091L6119.62 937H6097.4L6084.58 913.818L6072.08 937H6049.53L6069.81 902.091L6050.53 867.182H6073.08ZM6129.05 963.182V867.182H6151.05V879.136H6151.73C6152.64 877.015 6153.92 874.97 6155.59 873C6157.29 871.03 6159.44 869.424 6162.05 868.182C6164.68 866.909 6167.83 866.273 6171.5 866.273C6176.35 866.273 6180.88 867.545 6185.09 870.091C6189.33 872.636 6192.76 876.561 6195.36 881.864C6197.97 887.167 6199.27 893.924 6199.27 902.136C6199.27 910.045 6198.02 916.667 6195.5 922C6193.02 927.333 6189.65 931.333 6185.41 934C6181.2 936.667 6176.52 938 6171.36 938C6167.85 938 6164.8 937.424 6162.23 936.273C6159.65 935.121 6157.48 933.606 6155.73 931.727C6154 929.848 6152.67 927.833 6151.73 925.682H6151.27V963.182H6129.05ZM6150.82 902.091C6150.82 905.848 6151.32 909.121 6152.32 911.909C6153.35 914.697 6154.82 916.864 6156.73 918.409C6158.67 919.924 6160.98 920.682 6163.68 920.682C6166.41 920.682 6168.73 919.924 6170.64 918.409C6172.55 916.864 6173.98 914.697 6174.95 911.909C6175.95 909.121 6176.45 905.848 6176.45 902.091C6176.45 898.333 6175.95 895.076 6174.95 892.318C6173.98 889.561 6172.55 887.424 6170.64 885.909C6168.76 884.394 6166.44 883.636 6163.68 883.636C6160.95 883.636 6158.64 884.379 6156.73 885.864C6154.82 887.348 6153.35 889.47 6152.32 892.227C6151.32 894.985 6150.82 898.273 6150.82 902.091ZM6210.92 937V867.182H6233.15V937H6210.92ZM6222.06 859.045C6218.94 859.045 6216.25 858.015 6214.01 855.955C6211.77 853.864 6210.65 851.348 6210.65 848.409C6210.65 845.5 6211.77 843.015 6214.01 840.955C6216.25 838.864 6218.94 837.818 6222.06 837.818C6225.21 837.818 6227.89 838.864 6230.1 840.955C6232.34 843.015 6233.47 845.5 6233.47 848.409C6233.47 851.348 6232.34 853.864 6230.1 855.955C6227.89 858.015 6225.21 859.045 6222.06 859.045ZM6247.3 937V867.182H6268.89V879.909H6269.61C6270.89 875.303 6272.96 871.879 6275.84 869.636C6278.72 867.364 6282.07 866.227 6285.89 866.227C6286.92 866.227 6287.98 866.303 6289.07 866.455C6290.16 866.576 6291.17 866.773 6292.11 867.045V886.364C6291.05 886 6289.66 885.712 6287.93 885.5C6286.23 885.288 6284.72 885.182 6283.39 885.182C6280.75 885.182 6278.37 885.773 6276.25 886.955C6274.16 888.106 6272.51 889.727 6271.3 891.818C6270.11 893.879 6269.52 896.303 6269.52 899.091V937H6247.3ZM6330.18 938.318C6322.88 938.318 6316.58 936.879 6311.27 934C6306 931.091 6301.94 926.955 6299.09 921.591C6296.27 916.197 6294.86 909.788 6294.86 902.364C6294.86 895.152 6296.29 888.848 6299.14 883.455C6301.98 878.03 6306 873.818 6311.18 870.818C6316.36 867.788 6322.47 866.273 6329.5 866.273C6334.47 866.273 6339.02 867.045 6343.14 868.591C6347.26 870.136 6350.82 872.424 6353.82 875.455C6356.82 878.485 6359.15 882.227 6360.82 886.682C6362.48 891.106 6363.32 896.182 6363.32 901.909V907.455H6302.64V894.545H6342.64C6342.61 892.182 6342.05 890.076 6340.95 888.227C6339.86 886.379 6338.36 884.939 6336.45 883.909C6334.58 882.848 6332.41 882.318 6329.95 882.318C6327.47 882.318 6325.24 882.879 6323.27 884C6321.3 885.091 6319.74 886.591 6318.59 888.5C6317.44 890.379 6316.83 892.515 6316.77 894.909V908.045C6316.77 910.894 6317.33 913.394 6318.45 915.545C6319.58 917.667 6321.17 919.318 6323.23 920.5C6325.29 921.682 6327.74 922.273 6330.59 922.273C6332.56 922.273 6334.35 922 6335.95 921.455C6337.56 920.909 6338.94 920.106 6340.09 919.045C6341.24 917.985 6342.11 916.682 6342.68 915.136L6363.09 915.727C6362.24 920.303 6360.38 924.288 6357.5 927.682C6354.65 931.045 6350.91 933.667 6346.27 935.545C6341.64 937.394 6336.27 938.318 6330.18 938.318ZM6435.62 888.5L6415.22 889.045C6415 887.591 6414.43 886.303 6413.49 885.182C6412.55 884.03 6411.32 883.136 6409.81 882.5C6408.32 881.833 6406.59 881.5 6404.62 881.5C6402.05 881.5 6399.85 882.015 6398.03 883.045C6396.25 884.076 6395.37 885.47 6395.4 887.227C6395.37 888.591 6395.91 889.773 6397.03 890.773C6398.19 891.773 6400.23 892.576 6403.17 893.182L6416.62 895.727C6423.59 897.061 6428.78 899.273 6432.17 902.364C6435.59 905.455 6437.32 909.545 6437.35 914.636C6437.32 919.424 6435.9 923.591 6433.08 927.136C6430.29 930.682 6426.47 933.439 6421.62 935.409C6416.78 937.348 6411.23 938.318 6404.99 938.318C6395.02 938.318 6387.16 936.273 6381.4 932.182C6375.67 928.061 6372.4 922.545 6371.58 915.636L6393.53 915.091C6394.02 917.636 6395.28 919.576 6397.31 920.909C6399.34 922.242 6401.93 922.909 6405.08 922.909C6407.93 922.909 6410.25 922.379 6412.03 921.318C6413.82 920.258 6414.73 918.848 6414.76 917.091C6414.73 915.515 6414.03 914.258 6412.67 913.318C6411.31 912.348 6409.17 911.591 6406.26 911.045L6394.08 908.727C6387.08 907.455 6381.87 905.106 6378.44 901.682C6375.02 898.227 6373.32 893.833 6373.35 888.5C6373.32 883.833 6374.56 879.848 6377.08 876.545C6379.59 873.212 6383.17 870.667 6387.81 868.909C6392.44 867.152 6397.91 866.273 6404.22 866.273C6413.67 866.273 6421.13 868.258 6426.58 872.227C6432.03 876.167 6435.05 881.591 6435.62 888.5ZM6511.02 938.273C6503.93 938.273 6497.64 937.061 6492.16 934.636C6486.7 932.182 6482.4 928.803 6479.25 924.5C6476.1 920.197 6474.49 915.242 6474.43 909.636H6497.07C6497.16 911.667 6497.81 913.47 6499.02 915.045C6500.23 916.591 6501.89 917.803 6503.98 918.682C6506.07 919.561 6508.45 920 6511.11 920C6513.78 920 6516.13 919.53 6518.16 918.591C6520.22 917.621 6521.83 916.303 6522.98 914.636C6524.13 912.939 6524.69 911 6524.66 908.818C6524.69 906.636 6524.07 904.697 6522.8 903C6521.52 901.303 6519.72 899.985 6517.39 899.045C6515.08 898.106 6512.36 897.636 6509.2 897.636H6500.16V881.636H6509.2C6511.96 881.636 6514.39 881.182 6516.48 880.273C6518.6 879.364 6520.25 878.091 6521.43 876.455C6522.61 874.788 6523.19 872.879 6523.16 870.727C6523.19 868.636 6522.69 866.803 6521.66 865.227C6520.66 863.621 6519.25 862.379 6517.43 861.5C6515.64 860.621 6513.57 860.182 6511.2 860.182C6508.72 860.182 6506.46 860.621 6504.43 861.5C6502.43 862.379 6500.84 863.621 6499.66 865.227C6498.48 866.833 6497.86 868.697 6497.8 870.818H6476.3C6476.36 865.273 6477.9 860.394 6480.93 856.182C6483.96 851.939 6488.08 848.621 6493.3 846.227C6498.54 843.833 6504.51 842.636 6511.2 842.636C6517.87 842.636 6523.73 843.803 6528.8 846.136C6533.86 848.47 6537.8 851.652 6540.61 855.682C6543.43 859.682 6544.84 864.212 6544.84 869.273C6544.87 874.515 6543.16 878.833 6539.7 882.227C6536.28 885.621 6531.87 887.712 6526.48 888.5V889.227C6533.69 890.076 6539.13 892.409 6542.8 896.227C6546.49 900.045 6548.33 904.818 6548.3 910.545C6548.3 915.939 6546.7 920.727 6543.52 924.909C6540.37 929.061 6535.98 932.333 6530.34 934.727C6524.73 937.091 6518.3 938.273 6511.02 938.273ZM6599.49 939.273C6591.37 939.273 6584.37 937.348 6578.49 933.5C6572.61 929.621 6568.08 924.061 6564.9 916.818C6561.72 909.545 6560.14 900.803 6560.17 890.591C6560.2 880.379 6561.79 871.712 6564.94 864.591C6568.13 857.439 6572.64 852 6578.49 848.273C6584.37 844.515 6591.37 842.636 6599.49 842.636C6607.61 842.636 6614.61 844.515 6620.49 848.273C6626.4 852 6630.94 857.439 6634.12 864.591C6637.31 871.742 6638.88 880.409 6638.85 890.591C6638.85 900.833 6637.26 909.591 6634.08 916.864C6630.9 924.136 6626.37 929.697 6620.49 933.545C6614.64 937.364 6607.64 939.273 6599.49 939.273ZM6599.49 920.864C6604.34 920.864 6608.26 918.394 6611.26 913.455C6614.26 908.485 6615.75 900.864 6615.72 890.591C6615.72 883.864 6615.03 878.318 6613.67 873.955C6612.31 869.561 6610.41 866.288 6607.99 864.136C6605.56 861.985 6602.73 860.909 6599.49 860.909C6594.67 860.909 6590.78 863.348 6587.81 868.227C6584.84 873.076 6583.34 880.53 6583.31 890.591C6583.28 897.409 6583.93 903.061 6585.26 907.545C6586.63 912.03 6588.53 915.379 6590.99 917.591C6593.44 919.773 6596.28 920.864 6599.49 920.864ZM6691.33 867.182V883.545H6647.28V867.182H6691.33ZM6656.51 850.455H6678.74V915.045C6678.74 916.409 6678.95 917.515 6679.38 918.364C6679.83 919.182 6680.48 919.773 6681.33 920.136C6682.18 920.47 6683.19 920.636 6684.38 920.636C6685.22 920.636 6686.12 920.561 6687.06 920.409C6688.03 920.227 6688.75 920.076 6689.24 919.955L6692.6 936C6691.54 936.303 6690.04 936.682 6688.1 937.136C6686.19 937.591 6683.91 937.879 6681.24 938C6676.03 938.242 6671.56 937.636 6667.83 936.182C6664.13 934.697 6661.3 932.394 6659.33 929.273C6657.39 926.152 6656.45 922.227 6656.51 917.5V850.455ZM6726.4 897.182V937H6704.17V843.909H6725.67V880H6726.44C6728.02 875.697 6730.59 872.333 6734.17 869.909C6737.78 867.485 6742.19 866.273 6747.4 866.273C6752.31 866.273 6756.58 867.364 6760.22 869.545C6763.85 871.697 6766.67 874.742 6768.67 878.682C6770.7 882.621 6771.7 887.227 6771.67 892.5V937H6749.44V896.864C6749.47 892.985 6748.5 889.955 6746.53 887.773C6744.56 885.591 6741.79 884.5 6738.22 884.5C6735.88 884.5 6733.82 885.015 6732.03 886.045C6730.28 887.045 6728.9 888.485 6727.9 890.364C6726.93 892.242 6726.43 894.515 6726.4 897.182ZM6892.27 843.909V937H6873.18L6836.14 883.273H6835.55V937H6813.05V843.909H6832.41L6869.05 897.545H6869.82V843.909H6892.27ZM6939.01 938.318C6931.68 938.318 6925.38 936.818 6920.1 933.818C6914.86 930.788 6910.81 926.576 6907.97 921.182C6905.15 915.758 6903.74 909.47 6903.74 902.318C6903.74 895.136 6905.15 888.848 6907.97 883.455C6910.81 878.03 6914.86 873.818 6920.1 870.818C6925.38 867.788 6931.68 866.273 6939.01 866.273C6946.34 866.273 6952.63 867.788 6957.88 870.818C6963.15 873.818 6967.19 878.03 6970.01 883.455C6972.86 888.848 6974.28 895.136 6974.28 902.318C6974.28 909.47 6972.86 915.758 6970.01 921.182C6967.19 926.576 6963.15 930.788 6957.88 933.818C6952.63 936.818 6946.34 938.318 6939.01 938.318ZM6939.15 921.545C6941.81 921.545 6944.07 920.727 6945.92 919.091C6947.77 917.455 6949.18 915.182 6950.15 912.273C6951.15 909.364 6951.65 906 6951.65 902.182C6951.65 898.303 6951.15 894.909 6950.15 892C6949.18 889.091 6947.77 886.818 6945.92 885.182C6944.07 883.545 6941.81 882.727 6939.15 882.727C6936.39 882.727 6934.06 883.545 6932.15 885.182C6930.27 886.818 6928.83 889.091 6927.83 892C6926.86 894.909 6926.38 898.303 6926.38 902.182C6926.38 906 6926.86 909.364 6927.83 912.273C6928.83 915.182 6930.27 917.455 6932.15 919.091C6934.06 920.727 6936.39 921.545 6939.15 921.545ZM7051.15 867.182L7027.19 937H7001.74L6977.83 867.182H7001.24L7014.1 915.273H7014.83L7027.74 867.182H7051.15ZM7086.99 937V920.818L7120.94 891.091C7123.49 888.788 7125.66 886.682 7127.44 884.773C7129.23 882.833 7130.59 880.894 7131.53 878.955C7132.47 876.985 7132.94 874.848 7132.94 872.545C7132.94 869.97 7132.38 867.773 7131.26 865.955C7130.14 864.106 7128.59 862.682 7126.62 861.682C7124.66 860.682 7122.4 860.182 7119.85 860.182C7117.28 860.182 7115.02 860.712 7113.08 861.773C7111.14 862.803 7109.63 864.303 7108.53 866.273C7107.47 868.242 7106.94 870.636 7106.94 873.455H7085.62C7085.62 867.121 7087.05 861.652 7089.9 857.045C7092.75 852.439 7096.75 848.894 7101.9 846.409C7107.08 843.894 7113.09 842.636 7119.94 842.636C7127 842.636 7133.14 843.818 7138.35 846.182C7143.56 848.545 7147.59 851.848 7150.44 856.091C7153.32 860.303 7154.76 865.197 7154.76 870.773C7154.76 874.318 7154.05 877.833 7152.62 881.318C7151.2 884.803 7148.64 888.652 7144.94 892.864C7141.28 897.076 7136.06 902.121 7129.31 908L7118.17 918.273V918.864H7155.9V937H7086.99ZM7207.11 939.273C7198.99 939.273 7191.99 937.348 7186.11 933.5C7180.23 929.621 7175.7 924.061 7172.52 916.818C7169.34 909.545 7167.77 900.803 7167.8 890.591C7167.83 880.379 7169.42 871.712 7172.57 864.591C7175.75 857.439 7180.27 852 7186.11 848.273C7191.99 844.515 7198.99 842.636 7207.11 842.636C7215.23 842.636 7222.23 844.515 7228.11 848.273C7234.02 852 7238.57 857.439 7241.75 864.591C7244.93 871.742 7246.51 880.409 7246.48 890.591C7246.48 900.833 7244.89 909.591 7241.7 916.864C7238.52 924.136 7233.99 929.697 7228.11 933.545C7222.27 937.364 7215.27 939.273 7207.11 939.273ZM7207.11 920.864C7211.96 920.864 7215.89 918.394 7218.89 913.455C7221.89 908.485 7223.37 900.864 7223.34 890.591C7223.34 883.864 7222.66 878.318 7221.3 873.955C7219.93 869.561 7218.04 866.288 7215.61 864.136C7213.19 861.985 7210.36 860.909 7207.11 860.909C7202.3 860.909 7198.4 863.348 7195.43 868.227C7192.46 873.076 7190.96 880.53 7190.93 890.591C7190.9 897.409 7191.55 903.061 7192.89 907.545C7194.25 912.03 7196.16 915.379 7198.61 917.591C7201.07 919.773 7203.9 920.864 7207.11 920.864ZM7259.36 937V920.818L7293.32 891.091C7295.86 888.788 7298.03 886.682 7299.82 884.773C7301.61 882.833 7302.97 880.894 7303.91 878.955C7304.85 876.985 7305.32 874.848 7305.32 872.545C7305.32 869.97 7304.76 867.773 7303.64 865.955C7302.52 864.106 7300.97 862.682 7299 861.682C7297.03 860.682 7294.77 860.182 7292.23 860.182C7289.65 860.182 7287.39 860.712 7285.45 861.773C7283.52 862.803 7282 864.303 7280.91 866.273C7279.85 868.242 7279.32 870.636 7279.32 873.455H7258C7258 867.121 7259.42 861.652 7262.27 857.045C7265.12 852.439 7269.12 848.894 7274.27 846.409C7279.45 843.894 7285.47 842.636 7292.32 842.636C7299.38 842.636 7305.52 843.818 7310.73 846.182C7315.94 848.545 7319.97 851.848 7322.82 856.091C7325.7 860.303 7327.14 865.197 7327.14 870.773C7327.14 874.318 7326.42 877.833 7325 881.318C7323.58 884.803 7321.02 888.652 7317.32 892.864C7313.65 897.076 7308.44 902.121 7301.68 908L7290.55 918.273V918.864H7328.27V937H7259.36ZM7340.99 937V920.818L7374.94 891.091C7377.49 888.788 7379.66 886.682 7381.44 884.773C7383.23 882.833 7384.59 880.894 7385.53 878.955C7386.47 876.985 7386.94 874.848 7386.94 872.545C7386.94 869.97 7386.38 867.773 7385.26 865.955C7384.14 864.106 7382.59 862.682 7380.62 861.682C7378.66 860.682 7376.4 860.182 7373.85 860.182C7371.28 860.182 7369.02 860.712 7367.08 861.773C7365.14 862.803 7363.63 864.303 7362.53 866.273C7361.47 868.242 7360.94 870.636 7360.94 873.455H7339.62C7339.62 867.121 7341.05 861.652 7343.9 857.045C7346.75 852.439 7350.75 848.894 7355.9 846.409C7361.08 843.894 7367.09 842.636 7373.94 842.636C7381 842.636 7387.14 843.818 7392.35 846.182C7397.56 848.545 7401.59 851.848 7404.44 856.091C7407.32 860.303 7408.76 865.197 7408.76 870.773C7408.76 874.318 7408.05 877.833 7406.62 881.318C7405.2 884.803 7402.64 888.652 7398.94 892.864C7395.28 897.076 7390.06 902.121 7383.31 908L7372.17 918.273V918.864H7409.9V937H7340.99Z" fill="black"/>
<path d="M5863.11 707V547H5929.2C5941.18 547 5951.52 549.344 5960.22 554.031C5968.97 558.667 5975.71 565.151 5980.45 573.484C5985.19 581.766 5987.56 591.401 5987.56 602.391C5987.56 613.432 5985.14 623.094 5980.3 631.375C5975.51 639.604 5968.66 645.984 5959.75 650.516C5950.84 655.047 5940.27 657.312 5928.03 657.312H5887.25V626.844H5920.84C5926.68 626.844 5931.55 625.828 5935.45 623.797C5939.41 621.766 5942.41 618.927 5944.44 615.281C5946.47 611.583 5947.48 607.286 5947.48 602.391C5947.48 597.443 5946.47 593.172 5944.44 589.578C5942.41 585.932 5939.41 583.12 5935.45 581.141C5931.49 579.161 5926.63 578.172 5920.84 578.172H5901.78V707H5863.11ZM6045.3 547V707H6006.63V547H6045.3ZM6205.75 547V707H6172.93L6109.26 614.656H6108.25V707H6069.57V547H6102.86L6165.82 639.187H6167.15V547H6205.75ZM6230.06 707V547H6268.73V614.656H6270.84L6323.73 547H6369.28L6312.56 618.406L6370.3 707H6324.05L6284.2 644.109L6268.73 663.641V707H6230.06ZM6384.54 707V547H6493.75V578.406H6423.21V611.219H6486.8V642.703H6423.21V707H6384.54ZM6513.23 707V547H6579.32C6591.3 547 6601.64 549.161 6610.34 553.484C6619.09 557.755 6625.83 563.901 6630.57 571.922C6635.31 579.891 6637.68 589.344 6637.68 600.281C6637.68 611.375 6635.26 620.802 6630.41 628.562C6625.57 636.271 6618.7 642.156 6609.79 646.219C6600.88 650.229 6590.34 652.234 6578.15 652.234H6536.35V621.766H6570.96C6576.79 621.766 6581.66 621.01 6585.57 619.5C6589.53 617.937 6592.52 615.594 6594.55 612.469C6596.59 609.292 6597.6 605.229 6597.6 600.281C6597.6 595.333 6596.59 591.245 6594.55 588.016C6592.52 584.734 6589.53 582.286 6585.57 580.672C6581.61 579.005 6576.74 578.172 6570.96 578.172H6551.9V707H6513.23ZM6603.3 633.875L6643.15 707H6600.96L6561.9 633.875H6603.3ZM6697.56 547V707H6658.89V547H6697.56ZM6780.98 707H6721.84V547H6780.9C6797.2 547 6811.24 550.203 6823.01 556.609C6834.83 562.964 6843.95 572.13 6850.36 584.109C6856.76 596.036 6859.96 610.307 6859.96 626.922C6859.96 643.589 6856.76 657.911 6850.36 669.891C6844 681.87 6834.91 691.062 6823.09 697.469C6811.27 703.823 6797.23 707 6780.98 707ZM6760.51 674.031H6779.5C6788.45 674.031 6796.03 672.521 6802.23 669.5C6808.48 666.427 6813.19 661.453 6816.37 654.578C6819.6 647.651 6821.21 638.432 6821.21 626.922C6821.21 615.411 6819.6 606.245 6816.37 599.422C6813.14 592.547 6808.38 587.599 6802.07 584.578C6795.82 581.505 6788.12 579.969 6778.95 579.969H6760.51V674.031ZM6907.7 707H6866.14L6920.12 547H6971.61L7025.59 707H6984.03L6946.45 587.312H6945.2L6907.7 707ZM6902.15 644.031H6989.03V673.406H6902.15V644.031ZM7018.52 547H7061.72L7095.55 613.953H7096.96L7130.79 547H7173.99L7115.47 653.562V707H7077.04V653.562L7018.52 547Z" fill="#F4608C"/>
<path d="M6116.11 221.091H6147.68V305.53C6147.68 315.288 6145.36 323.79 6140.71 331.034C6136.07 338.236 6129.59 343.818 6121.28 347.781C6112.97 351.702 6103.32 353.662 6092.33 353.662C6081.2 353.662 6071.49 351.702 6063.18 347.781C6054.87 343.818 6048.41 338.236 6043.81 331.034C6039.21 323.79 6036.91 315.288 6036.91 305.53V221.091H6068.55V302.781C6068.55 307.298 6069.53 311.325 6071.49 314.862C6073.49 318.399 6076.28 321.169 6079.86 323.172C6083.44 325.175 6087.6 326.176 6092.33 326.176C6097.06 326.176 6101.19 325.175 6104.73 323.172C6108.31 321.169 6111.1 318.399 6113.1 314.862C6115.1 311.325 6116.11 307.298 6116.11 302.781V221.091ZM6238.27 260.338C6237.85 255.651 6235.95 252.007 6232.58 249.408C6229.26 246.766 6224.51 245.445 6218.33 245.445C6214.24 245.445 6210.83 245.977 6208.1 247.043C6205.38 248.108 6203.33 249.578 6201.97 251.453C6200.6 253.286 6199.9 255.395 6199.86 257.781C6199.77 259.741 6200.16 261.467 6201.01 262.959C6201.9 264.45 6203.18 265.771 6204.84 266.922C6206.55 268.03 6208.59 269.01 6210.98 269.862C6213.37 270.714 6216.05 271.46 6219.03 272.099L6230.28 274.656C6236.76 276.062 6242.47 277.938 6247.41 280.281C6252.4 282.625 6256.58 285.416 6259.94 288.655C6263.35 291.893 6265.93 295.622 6267.68 299.841C6269.42 304.06 6270.32 308.79 6270.36 314.031C6270.32 322.298 6268.23 329.393 6264.1 335.317C6259.96 341.24 6254.02 345.778 6246.26 348.932C6238.55 352.085 6229.24 353.662 6218.33 353.662C6207.38 353.662 6197.83 352.021 6189.69 348.74C6181.55 345.459 6175.23 340.473 6170.71 333.783C6166.19 327.092 6163.87 318.634 6163.74 308.406H6194.04C6194.3 312.625 6195.43 316.141 6197.43 318.953C6199.43 321.766 6202.18 323.896 6205.67 325.345C6209.21 326.794 6213.3 327.518 6217.95 327.518C6222.21 327.518 6225.83 326.943 6228.81 325.793C6231.84 324.642 6234.16 323.044 6235.78 320.999C6237.4 318.953 6238.23 316.609 6238.27 313.967C6238.23 311.496 6237.46 309.386 6235.97 307.639C6234.48 305.849 6232.18 304.315 6229.07 303.037C6226 301.716 6222.08 300.501 6217.31 299.393L6203.63 296.197C6192.29 293.598 6183.37 289.401 6176.85 283.605C6170.33 277.767 6167.09 269.884 6167.13 259.955C6167.09 251.858 6169.26 244.763 6173.65 238.669C6178.04 232.575 6184.11 227.824 6191.87 224.415C6199.62 221.006 6208.46 219.301 6218.39 219.301C6228.54 219.301 6237.34 221.027 6244.79 224.479C6252.29 227.888 6258.11 232.682 6262.24 238.861C6266.38 245.04 6268.49 252.199 6268.57 260.338H6238.27ZM6286.34 352V221.091H6377.62V246.787H6317.98V273.634H6372.95V299.393H6317.98V326.304H6377.62V352H6286.34ZM6554.94 268.52H6522.97C6522.55 265.239 6521.68 262.277 6520.35 259.635C6519.03 256.993 6517.29 254.734 6515.11 252.859C6512.94 250.984 6510.36 249.557 6507.38 248.577C6504.44 247.554 6501.18 247.043 6497.6 247.043C6491.25 247.043 6485.77 248.598 6481.17 251.709C6476.61 254.82 6473.1 259.315 6470.62 265.196C6468.19 271.077 6466.98 278.193 6466.98 286.545C6466.98 295.239 6468.22 302.526 6470.69 308.406C6473.2 314.244 6476.72 318.655 6481.23 321.638C6485.79 324.578 6491.19 326.048 6497.41 326.048C6500.9 326.048 6504.08 325.601 6506.93 324.706C6509.83 323.811 6512.36 322.511 6514.54 320.807C6516.75 319.06 6518.56 316.95 6519.97 314.479C6521.42 311.964 6522.42 309.131 6522.97 305.977L6554.94 306.169C6554.38 311.964 6552.7 317.675 6549.89 323.3C6547.12 328.925 6543.3 334.06 6538.44 338.705C6533.59 343.307 6527.66 346.972 6520.67 349.699C6513.73 352.426 6505.76 353.79 6496.77 353.79C6484.92 353.79 6474.31 351.19 6464.94 345.991C6455.6 340.75 6448.23 333.122 6442.82 323.108C6437.41 313.094 6434.7 300.906 6434.7 286.545C6434.7 272.142 6437.45 259.933 6442.95 249.919C6448.44 239.905 6455.88 232.298 6465.25 227.099C6474.63 221.901 6485.13 219.301 6496.77 219.301C6504.69 219.301 6512.02 220.409 6518.76 222.625C6525.49 224.798 6531.41 227.994 6536.53 232.213C6541.64 236.389 6545.79 241.524 6548.99 247.618C6552.19 253.712 6554.17 260.679 6554.94 268.52ZM6696.6 286.545C6696.6 300.949 6693.83 313.158 6688.29 323.172C6682.75 333.186 6675.25 340.793 6665.79 345.991C6656.37 351.19 6645.8 353.79 6634.08 353.79C6622.32 353.79 6611.73 351.169 6602.32 345.928C6592.9 340.686 6585.42 333.08 6579.88 323.108C6574.38 313.094 6571.63 300.906 6571.63 286.545C6571.63 272.142 6574.38 259.933 6579.88 249.919C6585.42 239.905 6592.9 232.298 6602.32 227.099C6611.73 221.901 6622.32 219.301 6634.08 219.301C6645.8 219.301 6656.37 221.901 6665.79 227.099C6675.25 232.298 6682.75 239.905 6688.29 249.919C6693.83 259.933 6696.6 272.142 6696.6 286.545ZM6664.25 286.545C6664.25 278.023 6663.04 270.821 6660.61 264.94C6658.23 259.06 6654.77 254.607 6650.26 251.581C6645.78 248.555 6640.39 247.043 6634.08 247.043C6627.82 247.043 6622.43 248.555 6617.91 251.581C6613.4 254.607 6609.92 259.06 6607.49 264.94C6605.11 270.821 6603.91 278.023 6603.91 286.545C6603.91 295.068 6605.11 302.27 6607.49 308.151C6609.92 314.031 6613.4 318.484 6617.91 321.51C6622.43 324.536 6627.82 326.048 6634.08 326.048C6640.39 326.048 6645.78 324.536 6650.26 321.51C6654.77 318.484 6658.23 314.031 6660.61 308.151C6663.04 302.27 6664.25 295.068 6664.25 286.545ZM6763.46 352H6715.07V221.091H6763.4C6776.73 221.091 6788.22 223.712 6797.85 228.953C6807.52 234.152 6814.98 241.652 6820.22 251.453C6825.46 261.212 6828.08 272.888 6828.08 286.482C6828.08 300.118 6825.46 311.837 6820.22 321.638C6815.02 331.439 6807.59 338.96 6797.91 344.202C6788.24 349.401 6776.75 352 6763.46 352ZM6746.71 325.026H6762.25C6769.57 325.026 6775.77 323.79 6780.85 321.318C6785.96 318.804 6789.82 314.734 6792.42 309.109C6795.06 303.442 6796.38 295.899 6796.38 286.482C6796.38 277.064 6795.06 269.564 6792.42 263.982C6789.77 258.357 6785.87 254.308 6780.72 251.837C6775.6 249.322 6769.3 248.065 6761.8 248.065H6746.71V325.026ZM6846.56 352V221.091H6937.83V246.787H6878.2V273.634H6933.17V299.393H6878.2V326.304H6937.83V352H6846.56ZM6975.23 337.298C6970.63 337.298 6966.68 335.679 6963.4 332.44C6960.16 329.202 6958.57 325.281 6958.61 320.679C6958.57 316.162 6960.16 312.305 6963.4 309.109C6966.68 305.871 6970.63 304.251 6975.23 304.251C6979.57 304.251 6983.41 305.871 6986.73 309.109C6990.1 312.305 6991.8 316.162 6991.85 320.679C6991.8 323.747 6991 326.538 6989.42 329.053C6987.88 331.567 6985.86 333.57 6983.35 335.061C6980.87 336.553 6978.17 337.298 6975.23 337.298ZM6975.23 273.761C6970.63 273.761 6966.68 272.142 6963.4 268.903C6960.16 265.665 6958.57 261.744 6958.61 257.142C6958.57 252.625 6960.16 248.768 6963.4 245.572C6966.68 242.334 6970.63 240.714 6975.23 240.714C6979.57 240.714 6983.41 242.334 6986.73 245.572C6990.1 248.768 6991.8 252.625 6991.85 257.142C6991.8 260.21 6991 263.001 6989.42 265.516C6987.88 268.03 6985.86 270.033 6983.35 271.524C6980.87 273.016 6978.17 273.761 6975.23 273.761Z" fill="white"/>
<path d="M1317 682C1294.8 682 1277.2 676 1264.2 664C1251.4 652 1245 635.6 1245 614.8V460H1290V614.5C1290 623.7 1292.3 630.8 1296.9 635.8C1301.7 640.6 1308.4 643 1317 643C1325.4 643 1332 640.6 1336.8 635.8C1341.6 630.8 1344 623.7 1344 614.5V460H1389V614.8C1389 635.4 1382.5 651.8 1369.5 664C1356.7 676 1339.2 682 1317 682ZM1426.68 679V460H1501.38C1516.78 460 1530.18 462.9 1541.58 468.7C1553.18 474.5 1562.08 482.6 1568.28 493C1574.68 503.4 1577.88 515.6 1577.88 529.6C1577.88 543.4 1574.68 555.6 1568.28 566.2C1561.88 576.6 1552.98 584.7 1541.58 590.5C1530.18 596.3 1516.78 599.2 1501.38 599.2H1471.68V679H1426.68ZM1471.68 560.2H1501.38C1510.98 560.2 1518.58 557.3 1524.18 551.5C1529.98 545.7 1532.88 538.4 1532.88 529.6C1532.88 520.8 1529.98 513.5 1524.18 507.7C1518.58 501.9 1510.98 499 1501.38 499H1471.68V560.2ZM1834.15 679V500.5H1778.65V460H1934.65V500.5H1879.15V679H1834.15ZM2036.53 682C2021.93 682 2009.23 679.3 1998.43 673.9C1987.63 668.3 1979.23 660.6 1973.23 650.8C1967.43 640.8 1964.53 629.2 1964.53 616V523C1964.53 509.8 1967.43 498.3 1973.23 488.5C1979.23 478.5 1987.63 470.8 1998.43 465.4C2009.23 459.8 2021.93 457 2036.53 457C2051.33 457 2064.03 459.8 2074.63 465.4C2085.43 470.8 2093.73 478.5 2099.53 488.5C2105.53 498.3 2108.53 509.8 2108.53 523V616C2108.53 629.2 2105.53 640.8 2099.53 650.8C2093.73 660.6 2085.43 668.3 2074.63 673.9C2064.03 679.3 2051.33 682 2036.53 682ZM2036.53 643C2054.53 643 2063.53 634 2063.53 616V523C2063.53 505 2054.53 496 2036.53 496C2018.53 496 2009.53 505 2009.53 523V616C2009.53 634 2018.53 643 2036.53 643ZM2396 682C2374.2 682 2356.9 676.6 2344.1 665.8C2331.3 655 2324.7 640.4 2324.3 622H2369.3C2369.7 628.6 2372.2 633.8 2376.8 637.6C2381.4 641.2 2387.8 643 2396 643C2404.8 643 2411.5 640.8 2416.1 636.4C2420.9 631.8 2423.3 625.5 2423.3 617.5V596.2C2423.3 579.4 2414.2 571 2396 571C2385.2 571 2377.5 574 2372.9 580H2329.4L2330.9 460H2460.2V500.5H2373.2L2372.6 557.5H2373.2C2375 550.5 2379.2 545.1 2385.8 541.3C2392.6 537.3 2401.3 535.3 2411.9 535.3C2429.7 535.3 2443.5 540.7 2453.3 551.5C2463.3 562.1 2468.3 577 2468.3 596.2V617.5C2468.3 637.5 2461.9 653.3 2449.1 664.9C2436.3 676.3 2418.6 682 2396 682ZM2536.58 679L2597.18 576.4L2595.08 575.2C2590.68 581.6 2585.38 586.6 2579.18 590.2C2572.98 593.8 2565.58 595.6 2556.98 595.6C2545.78 595.6 2535.88 592.8 2527.28 587.2C2518.68 581.4 2511.88 573.5 2506.88 563.5C2502.08 553.3 2499.68 541.7 2499.68 528.7C2499.68 514.7 2502.88 502.3 2509.28 491.5C2515.88 480.7 2524.98 472.3 2536.58 466.3C2548.18 460.1 2561.38 457 2576.18 457C2591.18 457 2604.38 460.2 2615.78 466.6C2627.38 473 2636.38 481.8 2642.78 493C2649.38 504 2652.68 516.8 2652.68 531.4C2652.68 540.6 2650.88 550.6 2647.28 561.4C2643.68 572.2 2638.38 583.9 2631.38 596.5L2586.38 679H2536.58ZM2576.18 562.3C2585.78 562.3 2593.58 559.1 2599.58 552.7C2605.78 546.3 2608.88 538.1 2608.88 528.1C2608.88 518.3 2605.78 510.3 2599.58 504.1C2593.58 497.7 2585.78 494.5 2576.18 494.5C2566.58 494.5 2558.68 497.7 2552.48 504.1C2546.48 510.3 2543.48 518.3 2543.48 528.1C2543.48 538.1 2546.48 546.3 2552.48 552.7C2558.68 559.1 2566.58 562.3 2576.18 562.3ZM2756.06 682C2746.86 682 2739.46 679.3 2733.86 673.9C2728.46 668.3 2725.76 660.9 2725.76 651.7C2725.76 642.3 2728.46 634.9 2733.86 629.5C2739.46 624.1 2746.86 621.4 2756.06 621.4C2765.46 621.4 2772.86 624.1 2778.26 629.5C2783.66 634.9 2786.36 642.3 2786.36 651.7C2786.36 660.9 2783.66 668.3 2778.26 673.9C2772.86 679.3 2765.46 682 2756.06 682ZM2886.75 679L2968.05 499H2907.45V535H2862.45V460H3015.45V498.7L2935.95 679H2886.75ZM3073.83 559C3061.23 559 3050.53 555.4 3041.73 548.2C3033.13 541 3028.83 531.1 3028.83 518.5V499C3028.83 486.4 3033.13 476.5 3041.73 469.3C3050.53 462.1 3061.23 458.5 3073.83 458.5C3086.43 458.5 3097.03 462.1 3105.63 469.3C3114.43 476.5 3118.83 486.4 3118.83 499V518.5C3118.83 531.1 3114.43 541 3105.63 548.2C3097.03 555.4 3086.43 559 3073.83 559ZM3021.33 679L3179.73 460H3210.33L3051.93 679H3021.33ZM3073.83 534.1C3084.03 534.1 3089.13 528.9 3089.13 518.5V499C3089.13 488.6 3084.03 483.4 3073.83 483.4C3063.63 483.4 3058.53 488.6 3058.53 499V518.5C3058.53 528.9 3063.63 534.1 3073.83 534.1ZM3157.83 680.5C3144.83 680.5 3134.03 676.8 3125.43 669.4C3117.03 662 3112.83 652.2 3112.83 640V620.5C3112.83 608.3 3117.03 598.5 3125.43 591.1C3134.03 583.7 3144.83 580 3157.83 580C3170.83 580 3181.53 583.7 3189.93 591.1C3198.53 598.5 3202.83 608.3 3202.83 620.5V640C3202.83 652.2 3198.53 662 3189.93 669.4C3181.53 676.8 3170.83 680.5 3157.83 680.5ZM3157.83 655.3C3168.03 655.3 3173.13 650.2 3173.13 640V620.5C3173.13 610.1 3168.03 604.9 3157.83 604.9C3147.63 604.9 3142.53 610.1 3142.53 620.5V640C3142.53 650.2 3147.63 655.3 3157.83 655.3ZM3475.59 682C3460.99 682 3448.29 679.3 3437.49 673.9C3426.69 668.3 3418.29 660.6 3412.29 650.8C3406.49 640.8 3403.59 629.2 3403.59 616V523C3403.59 509.8 3406.49 498.3 3412.29 488.5C3418.29 478.5 3426.69 470.8 3437.49 465.4C3448.29 459.8 3460.99 457 3475.59 457C3490.39 457 3503.09 459.8 3513.69 465.4C3524.49 470.8 3532.79 478.5 3538.59 488.5C3544.59 498.3 3547.59 509.8 3547.59 523V616C3547.59 629.2 3544.59 640.8 3538.59 650.8C3532.79 660.6 3524.49 668.3 3513.69 673.9C3503.09 679.3 3490.39 682 3475.59 682ZM3475.59 643C3493.59 643 3502.59 634 3502.59 616V523C3502.59 505 3493.59 496 3475.59 496C3457.59 496 3448.59 505 3448.59 523V616C3448.59 634 3457.59 643 3475.59 643ZM3586.48 679V460H3727.48V502H3630.88V550.6H3719.68V592.6H3631.48V679H3586.48ZM3766.36 679V460H3907.36V502H3810.76V550.6H3899.56V592.6H3811.36V679H3766.36Z" fill="black"/>
</svg>
